<?xml version="1.0" encoding="UTF-8"?>
<svg xmlns="http://www.w3.org/2000/svg" version="1.1" viewBox="0 0 841.9 595.3">
  <defs>
    <style>
      .cls-1 {
        fill: #e9454b;
      }

      .cls-2 {
        fill: #fff;
        font-family: Poppins-Regular, Poppins;
        font-size: 114.4px;
        letter-spacing: 0em;
      }
    </style>
  </defs>
  <!-- Generator: Adobe Illustrator 28.6.0, SVG Export Plug-In . SVG Version: 1.2.0 Build 709)  -->
  <g>
    <g id="Camada_1">
      <g>
        <path class="cls-1" d="M833.9,253.1c-.9-8.9-8.4-15.8-17.4-15.8h-.4c-3.4,0-6.5,1-9.2,2.6-4.6,2.8-7.7,7.6-8.3,13.2,0,.6,0,1.1,0,1.7v23.6h-27.5v-3.7c0-9.7-7.9-17.6-17.6-17.6h-.2c-9.7,0-17.6,7.9-17.6,17.6v33.5c0,.2,0,.4,0,.7.4,26.9,22.1,48.9,48.8,49.1h.4c11.9,0,22.9-4.3,31.4-11.4,10.8-9,17.8-22.6,17.8-37.7,0,0,0,0,0-.1v-54c0-.6,0-1.2,0-1.7ZM822.4,308.8s0,0,0,.1c0,7.6-2.3,14.7-6.3,20.6-6.7,10.2-18.3,16.9-31.4,16.9h-.3c-20.4-.2-37-16.9-37.4-37.5,0-.2,0-.4,0-.7v-33.5c0-3.3,2.7-6.1,6.1-6.1h.2c3.3,0,6.1,2.7,6.1,6.1v29c0,2.3,1.3,4.3,3.3,5.2.8.4,1.6.6,2.5.6s1.7-.2,2.5-.6c1.9-.9,3.3-2.9,3.3-5.2v-13.7h7.1v13.7c0,2.3,1.3,4.3,3.3,5.2.8.4,1.6.6,2.5.6s1.7-.2,2.5-.6c1.9-.9,3.3-2.9,3.3-5.2v-13.7h9v13.7c0,2.3,1.3,4.3,3.3,5.2.8.4,1.6.6,2.5.6s1.7-.2,2.5-.6c1.9-.9,3.3-2.9,3.3-5.2v-48.9c0-.6,0-1.2.3-1.7.7-2.4,2.9-4.2,5.5-4.3,0,0,.1,0,.2,0h.4c2.7,0,5,1.8,5.7,4.3.2.5.3,1.1.3,1.7v54Z"/>
        <text class="cls-2" transform="translate(7.9 357.6)"><tspan x="0" y="0">onebitcode</tspan></text>
      </g>
    </g>
  </g>
</svg>