<?xml version="1.0" encoding="UTF-8"?>
<svg xmlns="http://www.w3.org/2000/svg" width="227" height="70" viewBox="0 0 227 70" fill="none">
  <path d="M111.63 34.658C111.63 42.6458 106.51 47.5562 98.8834 47.5562C91.2565 47.5562 86.1941 42.6458 86.1941 34.658C86.1941 26.6702 91.3135 21.7598 98.8834 21.7598C106.453 21.7598 111.63 26.6702 111.63 34.658ZM104.155 34.658C104.155 30.5169 102.569 27.2876 98.8834 27.2876C95.1982 27.2876 93.6595 30.5074 93.6595 34.658C93.6595 38.8086 95.2457 42.0284 98.8834 42.0284C102.521 42.0284 104.155 38.8086 104.155 34.658Z" fill="#D22449"></path>
  <path d="M123.502 43.871V57.0732H116.132V22.4816H123.246V25.9579C124.623 23.4504 127.596 21.7598 131.129 21.7598C137.113 21.7598 141.928 26.7272 141.928 34.658C141.928 42.5888 137.113 47.5562 131.129 47.5562C127.035 47.5562 124.727 45.7611 123.502 43.871ZM123.455 35.3798C123.455 40.0338 126.627 41.8765 129.087 41.8765C132.364 41.8765 134.406 38.8086 134.406 34.658C134.406 30.5074 132.364 27.4395 129.087 27.4395C126.475 27.4395 123.455 29.2822 123.455 33.9931V35.3704V35.3798Z" fill="#D22449"></path>
  <path d="M169.244 46.844H162.13V43.2633C160.905 45.5618 158.55 47.5658 154.655 47.5658C150.001 47.5658 146.212 44.8019 146.212 39.2741V22.4912H153.582V37.0801C153.582 40.4044 155.273 41.5346 157.267 41.5346C159.566 41.5346 161.874 39.5401 161.874 35.038V22.5007H169.244V46.863V46.844Z" fill="#D22449"></path>
  <path d="M185.828 31.7424C190.89 32.4073 195.753 34.0979 195.753 39.4168C195.753 44.7356 191.147 47.5565 184.65 47.5565C178.609 47.5565 173.955 45.0965 173.29 40.49L180.404 39.4168C180.613 41.6203 182.551 42.3896 184.754 42.3896C186.749 42.3896 188.335 41.7722 188.335 39.9866C188.335 38.5049 187.262 37.9921 183.833 37.4317C178.923 36.7668 174.003 35.2851 174.003 29.7573C174.003 24.2295 179.274 21.7695 184.745 21.7695C190.216 21.7695 194.623 24.125 195.44 28.2661L188.373 29.7003C188.117 27.9052 186.74 26.9364 184.735 26.9364C182.893 26.9364 181.411 27.7532 181.411 29.14C181.411 31.03 183.615 31.4954 185.809 31.7519L185.828 31.7424Z" fill="#D22449"></path>
  <g clip-path="url(#clip0_609_5256)">
    <path d="M19.1493 15.1737C16.9687 16.1886 16.0241 18.7812 17.0391 20.9618L31.8007 52.6256C32.8157 54.8062 35.4083 55.7508 37.5889 54.7359L69.2527 39.9742C71.4332 38.9592 72.3778 36.3666 71.3629 34.1861L56.5912 2.51222C55.5762 0.331625 52.9836 -0.612963 50.803 0.401967L19.1493 15.1737Z" fill="#D22449"></path>
    <path d="M38.8048 57.339C37.82 57.8012 36.775 58.0122 35.76 58.0122C33.0267 58.0122 30.4141 56.4647 29.1881 53.8319L18.0038 29.8555L11.6831 34.2769C8.82922 36.2767 8.13585 40.2057 10.1356 43.0596L27.108 67.2973C29.1077 70.1512 33.0368 70.8446 35.8907 68.8448L60.1284 51.8724C62.0477 50.5359 62.9822 48.3151 62.7913 46.1446L38.8048 57.3289V57.339Z" fill="#919293"></path>
  </g>
  <defs>
    <clipPath id="clip0_609_5256">
      <rect width="62.7648" height="70" fill="white" transform="translate(9)"></rect>
    </clipPath>
  </defs>
</svg>
