<?xml version="1.0" encoding="UTF-8"?>
<svg id="Camada_1" data-name="Camada 1" xmlns="http://www.w3.org/2000/svg" viewBox="0 0 1012 301">
  <defs>
    <style>
      .cls-1 {
        fill: #00a47e;
      }

      .cls-2 {
        fill: #12100c;
      }
    </style>
  </defs>
  <path class="cls-1" d="m52.41,160.3c0-41.2,11.12-66.4,33.38-100.32l3.9-5.32-27.13-18.91-3.87,5.83c-25.16,38.27-39.69,69.78-39.69,118.71s14.53,80.44,39.69,118.71l3.87,6.28,27.13-18.88-3.9-5.83c-22.26-33.89-33.38-58.63-33.38-100.29"/>
  <path class="cls-1" d="m737.23,160.3c0,41.66-11.15,66.39-33.41,100.29l-3.38,5.83,26.61,18.88,3.87-6.28c25.16-38.27,40.18-69.78,40.18-118.71s-15.01-80.44-40.18-118.71l-3.87-5.83-26.61,18.91,3.38,5.32c22.26,33.92,33.41,59.12,33.41,100.32"/>
  <path class="cls-2" d="m207.76,116.68l-19.85,19.88c-7.73-8.25-15.01-12.11-21.78-12.11-3.38,0-6.28.97-8.22,2.42-1.93,1.45-2.9,3.38-2.9,5.35s.48,3.38,1.93,4.83c.97,1.45,4.35,3.38,9.18,5.8l11.63,5.83c12.08,6.28,20.78,12.6,25.16,18.91,4.83,6.28,7.25,13.56,7.25,21.78,0,11.63-4.35,20.84-12.6,28.6-8.22,7.25-19.33,11.15-33.38,11.15-18.4,0-32.93-7.28-44.04-21.81l19.36-21.33c3.87,4.35,8.22,7.76,13.05,10.66,5.35,2.42,9.7,3.87,13.56,3.87,4.35,0,7.73-.97,10.15-2.9,2.45-1.93,3.9-4.35,3.9-6.77,0-5.35-4.86-9.7-14.05-14.56l-10.63-5.32c-20.33-10.18-30.99-23.26-30.99-38.76,0-10.18,3.87-18.91,11.63-25.71,7.73-7.25,17.88-10.63,30-10.63,8.22,0,15.98,1.45,23.23,5.32,7.25,3.38,13.08,8.73,18.4,15.5"/>
  <path class="cls-2" d="m234.86,98.76h31.96v14.53c5.32-5.83,11.6-10.18,17.88-13.08,6.8-2.9,14.05-4.35,21.78-4.35s15.01,1.93,21.3,5.8c6.31,3.87,11.63,9.21,15.5,16.95,4.83-7.73,11.12-13.08,18.88-16.95,7.25-3.87,14.98-5.8,23.71-5.8,9.18,0,16.95,1.93,23.71,6.28,6.77,3.87,11.6,9.7,15.01,16.46,2.9,6.8,4.35,17.46,4.35,32.96v74.13h-31.96v-64.43c0-14.05-1.93-23.74-5.32-29.06-3.87-4.86-9.18-7.76-15.98-7.76-5.8,0-10.63,1.45-14.98,4.83-4.35,2.93-7.28,7.28-9.21,13.08-2.42,5.35-3.38,14.08-3.38,26.19v57.15h-31.93v-61.53c0-11.15-.97-19.36-2.42-24.71-1.93-4.83-4.38-8.73-7.76-11.15-3.38-2.42-7.25-3.87-12.08-3.87-5.32,0-10.18,1.93-14.53,4.83-3.87,3.41-7.25,7.76-9.67,13.08-1.93,5.83-2.9,14.56-2.9,27.16v56.18h-31.96v-126.93Z"/>
  <path class="cls-2" d="m519.44,124.92c-9.7,0-17.91,3.38-24.68,10.66-6.31,6.77-9.7,15.98-9.7,26.64s3.38,19.88,10.18,27.13c6.28,6.8,14.5,10.66,24.2,10.66s18.4-3.38,25.16-10.66c6.28-6.77,9.67-15.98,9.67-27.13s-3.38-19.88-9.67-27.13c-6.77-6.8-15.01-10.18-25.16-10.18m33.38-26.16h31.48v126.93h-31.48v-13.08c-6.28,5.83-12.57,9.7-18.88,12.6-5.8,2.45-12.57,3.9-20.3,3.9-15.98,0-30.51-6.31-42.11-18.91-12.11-13.08-17.91-28.58-17.91-47.48,0-19.88,5.32-35.86,16.95-48.45,11.6-12.11,25.65-18.4,42.59-18.4,7.25,0,14.5,1.45,21.27,4.35,6.31,2.42,12.6,6.77,18.4,12.6v-14.05Z"/>
  <path class="cls-2" d="m608.97,98.76h27.58v15.98c2.9-6.28,6.77-11.15,11.63-14.05,4.83-3.38,10.15-4.83,15.95-4.83,4.35,0,8.73.97,13.08,2.9l-10.18,27.61c-3.38-1.93-6.28-2.9-9.18-2.9-4.83,0-8.7,2.9-12.11,9.21-3.38,5.8-5.32,17.91-5.32,35.86l.48,5.8v51.35h-31.93v-126.93Z"/>
  <path class="cls-2" d="m827.73,57.56c-4.38,0-7.76.97-11.15,2.93-3.38,1.93-6.28,4.83-8.22,8.7-1.93,3.41-2.9,7.28-2.9,11.15s.97,7.76,2.9,11.15c1.93,3.87,4.83,6.8,8.22,8.73,3.38,1.93,7.25,2.9,11.15,2.9s7.25-.97,11.12-2.9c3.38-1.93,6.28-4.86,8.22-8.25,1.96-3.38,2.93-7.25,2.93-11.63,0-6.28-2.45-11.63-6.8-15.98-3.87-4.38-9.18-6.8-15.47-6.8m28.55-5.32v55.73h-6.77v-9.21c-3.41,3.38-6.8,6.28-10.18,8.22-3.87,1.96-8.22,2.45-12.57,2.45-7.76,0-14.53-2.45-20.33-8.25-5.35-5.83-8.25-13.08-8.25-21.33,0-7.76,2.9-14.53,8.25-20.36,5.8-5.8,12.57-8.7,20.81-8.7,4.35,0,8.7.97,12.08,2.9,3.87,1.93,7.25,4.83,10.18,8.73v-10.18h6.77Z"/>
  <path class="cls-2" d="m901.28,57.56c-5.8,0-11.15,2.42-15.5,6.8-4.35,4.35-6.28,9.7-6.28,15.98,0,4.38.97,8.25,2.42,11.63,1.93,3.38,4.83,6.31,8.22,8.25,3.9,1.93,7.28,2.9,11.63,2.9,3.87,0,7.25-.97,10.63-2.9,3.41-1.93,6.31-4.86,8.25-8.73,1.93-3.38,2.9-7.25,2.9-11.15s-.97-7.73-2.9-11.15c-1.93-3.87-4.83-6.77-8.25-8.7-3.38-1.96-6.77-2.93-11.12-2.93m-28.55-5.32h7.25v10.18c2.42-3.9,5.8-6.8,9.67-8.73,3.9-1.93,7.76-2.9,12.6-2.9,7.73,0,14.53,2.9,20.33,8.7,5.32,5.35,8.22,12.6,8.22,20.36,0,8.25-2.9,15.5-8.22,21.33-5.8,5.8-12.6,8.25-20.33,8.25-4.35,0-8.7-.48-12.11-2.45-3.87-1.93-7.25-4.83-10.15-8.22v30.03h-7.25V52.24Z"/>
  <path class="cls-2" d="m971.45,57.56c-3.87,0-7.73.97-11.12,2.93-3.41,1.93-6.31,4.83-8.25,8.7-1.93,3.41-2.9,7.28-2.9,11.15s.97,7.76,2.9,11.15c1.93,3.87,4.83,6.8,8.25,8.73,3.38,1.93,7.25,2.9,11.12,2.9s7.73-.97,11.15-2.9c3.38-1.93,6.28-4.86,8.22-8.25,1.93-3.38,2.9-7.25,2.9-11.63,0-6.28-2.42-11.63-6.77-15.98-3.87-4.38-9.21-6.8-15.5-6.8m28.55-27.13v77.54h-6.77v-9.21c-3.38,3.38-6.77,6.28-10.15,8.22-3.9,1.96-7.76,2.45-12.6,2.45-7.73,0-14.53-2.45-20.33-8.25-5.32-5.83-8.22-13.08-8.22-21.33,0-7.76,2.9-14.53,8.7-20.36,5.32-5.8,12.11-8.7,20.33-8.7,4.35,0,8.7.97,12.11,2.9,3.87,1.93,7.25,4.83,10.15,8.73v-31.99h6.77Z"/>
</svg>