<?xml version="1.0" encoding="UTF-8"?>
<svg xmlns="http://www.w3.org/2000/svg" version="1.1" viewBox="0 0 841.9 595.3">
  <defs>
    <style>
      .cls-1 {
        fill: #e9454b;
      }

      .cls-2 {
        fill: #222323;
        font-family: Poppins-Regular, Poppins;
        font-size: 133.1px;
        letter-spacing: 0em;
      }
    </style>
  </defs>
  <!-- Generator: Adobe Illustrator 28.6.0, SVG Export Plug-In . SVG Version: 1.2.0 Build 709)  -->
  <g>
    <g id="Camada_1">
      <g>
        <path class="cls-1" d="M523.5,127.5c-1.8-18.5-17.5-33-36.4-33h-.7c-7,0-13.6,2-19.1,5.4-9.5,5.9-16.1,15.9-17.3,27.6-.1,1.2-.2,2.4-.2,3.6v49.3h-57.5v-7.8c0-20.3-16.5-36.7-36.7-36.7h-.5c-20.3,0-36.7,16.5-36.7,36.7v70c0,.5,0,.9,0,1.4.7,56.2,46.2,102,101.9,102.5h.8c24.9,0,47.8-8.9,65.6-23.7,22.6-18.8,37.1-47.1,37.1-78.8,0,0,0-.2,0-.2v-112.7c0-1.2,0-2.4-.2-3.6ZM499.6,243.8c0,0,0,.2,0,.2,0,15.9-4.9,30.7-13.1,43.1-14.1,21.2-38.2,35.3-65.6,35.3h-.6c-42.6-.3-77.3-35.3-78-78.4,0-.5,0-.9,0-1.4v-70c0-7,5.7-12.6,12.6-12.6h.5c7,0,12.6,5.7,12.6,12.6v60.6c0,4.8,2.8,8.9,6.8,10.9,1.6.8,3.3,1.2,5.2,1.2s3.6-.4,5.2-1.2c4-1.9,6.8-6.1,6.8-10.9v-28.7h14.7v28.7c0,4.8,2.8,8.9,6.8,10.9,1.6.8,3.3,1.2,5.2,1.2s3.6-.4,5.2-1.2c4-1.9,6.8-6.1,6.8-10.9v-28.7h18.7v28.7c0,4.8,2.8,8.9,6.8,10.9,1.6.8,3.3,1.2,5.2,1.2s3.6-.4,5.2-1.2c4-1.9,6.8-6.1,6.8-10.9v-102.1c0-1.2.2-2.4.5-3.6,1.5-5,6.1-8.7,11.5-8.9.2,0,.3,0,.5,0h.7c5.7,0,10.4,3.8,12,8.9.3,1.1.5,2.3.5,3.6v112.7Z"/>
        <text class="cls-2" transform="translate(4.8 500.4)"><tspan x="0" y="0">onebitcode</tspan></text>
      </g>
    </g>
  </g>
</svg>