<svg xmlns="http://www.w3.org/2000/svg" xmlns:xlink="http://www.w3.org/1999/xlink" width="50" zoomAndPan="magnify" viewBox="0 0 37.5 37.499999" height="50" preserveAspectRatio="xMidYMid meet" version="1.0"><defs><clipPath id="c0959690a1"><path d="M 10.074219 0.667969 L 27.097656 0.667969 L 27.097656 36.191406 L 10.074219 36.191406 Z M 10.074219 0.667969 " clip-rule="nonzero"/></clipPath></defs><g clip-path="url(#c0959690a1)"><path fill="#ffffff" d="M 23.171875 6.558594 L 27.097656 6.558594 L 27.097656 0.722656 L 22.082031 0.722656 L 22.082031 0.746094 C 15.492188 0.984375 14.128906 4.625 14.015625 8.472656 L 14.003906 8.472656 L 14.003906 12.523438 L 10.074219 12.523438 L 10.074219 18.371094 L 14.003906 18.371094 L 14.003906 36.136719 L 21.046875 36.136719 L 21.046875 18.371094 L 26.101562 18.371094 L 27.097656 12.523438 L 21.046875 12.523438 L 21.046875 8.898438 C 21.046875 7.609375 21.925781 6.558594 23.171875 6.558594 Z M 23.171875 6.558594 " fill-opacity="1" fill-rule="nonzero"/></g></svg>