<svg xmlns="http://www.w3.org/2000/svg" xmlns:xlink="http://www.w3.org/1999/xlink" width="50" zoomAndPan="magnify" viewBox="0 0 37.5 37.499999" height="50" preserveAspectRatio="xMidYMid meet" version="1.0"><defs><clipPath id="7a3eb966ef"><path d="M 1.851562 1.851562 L 35.15625 1.851562 L 35.15625 35.15625 L 1.851562 35.15625 Z M 1.851562 1.851562 " clip-rule="nonzero"/></clipPath></defs><g clip-path="url(#7a3eb966ef)"><path fill="#ffffff" d="M 25.882812 35.15625 L 11.125 35.15625 C 6.03125 35.15625 1.851562 30.976562 1.851562 25.882812 L 1.851562 11.125 C 1.851562 6.03125 6.03125 1.851562 11.125 1.851562 L 25.882812 1.851562 C 30.976562 1.851562 35.15625 6.03125 35.15625 11.125 L 35.15625 25.882812 C 35.15625 30.976562 30.976562 35.15625 25.882812 35.15625 Z M 11.125 3.941406 C 7.207031 3.941406 3.941406 7.207031 3.941406 11.125 L 3.941406 25.882812 C 3.941406 29.800781 7.207031 33.066406 11.125 33.066406 L 25.882812 33.066406 C 29.800781 33.066406 33.066406 29.800781 33.066406 25.882812 L 33.066406 11.125 C 33.066406 7.207031 29.800781 3.941406 25.882812 3.941406 Z M 11.125 3.941406 " fill-opacity="1" fill-rule="evenodd"/></g><path fill="#ffffff" d="M 18.503906 24.25 C 15.367188 24.25 12.757812 21.636719 12.757812 18.503906 C 12.757812 15.367188 15.367188 12.757812 18.503906 12.757812 C 21.636719 12.757812 24.25 15.367188 24.25 18.503906 C 24.25 21.636719 21.636719 24.25 18.503906 24.25 Z M 18.503906 14.847656 C 16.480469 14.847656 14.847656 16.480469 14.847656 18.503906 C 14.847656 20.527344 16.480469 22.160156 18.503906 22.160156 C 20.527344 22.160156 22.160156 20.527344 22.160156 18.503906 C 22.160156 16.480469 20.527344 14.847656 18.503906 14.847656 Z M 18.503906 14.847656 " fill-opacity="1" fill-rule="evenodd"/><path fill="#ffffff" d="M 18.503906 27.90625 C 13.34375 27.90625 9.097656 23.664062 9.097656 18.503906 C 9.097656 13.34375 13.34375 9.097656 18.503906 9.097656 C 23.664062 9.097656 27.90625 13.34375 27.90625 18.503906 C 27.90625 23.664062 23.664062 27.90625 18.503906 27.90625 Z M 18.503906 11.1875 C 14.453125 11.1875 11.1875 14.453125 11.1875 18.503906 C 11.1875 22.550781 14.453125 25.816406 18.503906 25.816406 C 22.550781 25.816406 25.816406 22.550781 25.816406 18.503906 C 25.816406 14.453125 22.550781 11.1875 18.503906 11.1875 Z M 18.503906 11.1875 " fill-opacity="1" fill-rule="evenodd"/><path fill="#ffffff" d="M 10.796875 9.554688 L 8.511719 9.554688 C 7.921875 9.554688 7.464844 9.097656 7.464844 8.511719 C 7.464844 7.921875 7.921875 7.464844 8.511719 7.464844 L 10.796875 7.464844 C 11.386719 7.464844 11.84375 7.921875 11.84375 8.511719 C 11.84375 9.097656 11.386719 9.554688 10.796875 9.554688 Z M 10.796875 9.554688 " fill-opacity="1" fill-rule="evenodd"/></svg>