<svg xmlns="http://www.w3.org/2000/svg" xmlns:xlink="http://www.w3.org/1999/xlink" width="50" zoomAndPan="magnify" viewBox="0 0 37.5 37.499999" height="50" preserveAspectRatio="xMidYMid meet" version="1.0"><defs><clipPath id="2f43abd5af"><path d="M 1 0.953125 L 35.785156 0.953125 L 35.785156 35.738281 L 1 35.738281 Z M 1 0.953125 " clip-rule="nonzero"/></clipPath></defs><g clip-path="url(#2f43abd5af)"><path fill="#ffffff" d="M 18.378906 0.984375 C 8.71875 1.019531 0.996094 8.851562 1.125 18.484375 C 1.148438 20.441406 1.492188 22.335938 2.164062 24.167969 C 2.835938 26.003906 3.792969 27.679688 5.035156 29.1875 C 5.234375 29.433594 5.347656 29.710938 5.375 30.023438 C 5.402344 30.335938 5.335938 30.628906 5.183594 30.902344 L 3.691406 33.570312 C 3.277344 34.308594 3.953125 35.183594 4.773438 34.972656 L 9.828125 33.691406 C 10.191406 33.597656 10.542969 33.632812 10.878906 33.796875 C 13.140625 34.894531 15.527344 35.46875 18.039062 35.519531 C 27.75 35.742188 35.722656 28 35.753906 18.3125 C 35.785156 8.726562 27.988281 0.953125 18.378906 0.984375 Z M 18.4375 33.398438 C 17.441406 33.398438 16.453125 33.300781 15.476562 33.105469 C 14.5 32.914062 13.550781 32.625 12.628906 32.246094 C 11.707031 31.863281 10.832031 31.398438 10.003906 30.847656 C 9.175781 30.292969 8.40625 29.664062 7.703125 28.964844 C 7 28.261719 6.367188 27.496094 5.816406 26.667969 C 5.261719 25.839844 4.792969 24.96875 4.410156 24.050781 C 4.03125 23.132812 3.742188 22.183594 3.546875 21.210938 C 3.355469 20.234375 3.257812 19.25 3.257812 18.253906 C 3.257812 9.894531 10.054688 3.113281 18.4375 3.113281 C 26.789062 3.113281 33.566406 9.839844 33.621094 18.160156 C 33.671875 26.503906 26.808594 33.398438 18.4375 33.398438 Z M 18.4375 33.398438 " fill-opacity="1" fill-rule="nonzero"/></g><path fill="#ffffff" d="M 15.726562 10.894531 L 15.730469 10.90625 L 16.636719 12.699219 C 16.839844 13.097656 16.898438 13.515625 16.820312 13.957031 C 16.742188 14.394531 16.539062 14.765625 16.210938 15.070312 C 15.886719 15.371094 15.683594 15.742188 15.601562 16.175781 C 15.523438 16.613281 15.582031 17.03125 15.777344 17.425781 C 16.324219 18.515625 17.265625 20.015625 18.703125 21.097656 C 19.03125 21.347656 19.402344 21.484375 19.816406 21.503906 C 20.230469 21.527344 20.613281 21.429688 20.96875 21.21875 L 21.550781 20.863281 C 22.109375 20.523438 22.695312 20.46875 23.308594 20.703125 L 25.628906 21.582031 C 25.875 21.675781 26.097656 21.8125 26.292969 21.996094 C 26.484375 22.179688 26.636719 22.390625 26.746094 22.632812 C 26.855469 22.875 26.914062 23.128906 26.921875 23.394531 C 26.929688 23.660156 26.886719 23.917969 26.792969 24.167969 C 26.765625 24.238281 26.734375 24.308594 26.699219 24.375 L 26.058594 25.617188 C 25.953125 25.820312 25.816406 25.996094 25.652344 26.152344 C 25.484375 26.308594 25.296875 26.433594 25.089844 26.527344 C 24.882812 26.621094 24.664062 26.675781 24.4375 26.695312 C 24.207031 26.714844 23.984375 26.695312 23.761719 26.636719 C 20.121094 25.699219 11.445312 22.433594 10.746094 12.558594 C 10.71875 12.160156 10.804688 11.785156 11 11.433594 C 11.199219 11.082031 11.476562 10.816406 11.835938 10.632812 L 13.015625 10.027344 C 13.253906 9.90625 13.503906 9.835938 13.769531 9.8125 C 14.035156 9.789062 14.296875 9.820312 14.550781 9.902344 C 14.804688 9.984375 15.035156 10.109375 15.238281 10.28125 C 15.441406 10.453125 15.601562 10.65625 15.726562 10.894531 Z M 15.726562 10.894531 " fill-opacity="1" fill-rule="nonzero"/></svg>