<svg xmlns="http://www.w3.org/2000/svg" xmlns:xlink="http://www.w3.org/1999/xlink" width="40" zoomAndPan="magnify" viewBox="0 0 30 30.000001" height="40" preserveAspectRatio="xMidYMid meet" version="1.0"><defs><clipPath id="d4a38136ae"><path d="M 7 0 L 23.980469 0 L 23.980469 10 L 7 10 Z M 7 0 " clip-rule="nonzero"/></clipPath><clipPath id="888b6b8bfc"><path d="M 7 18 L 23.980469 18 L 23.980469 28 L 7 28 Z M 7 18 " clip-rule="nonzero"/></clipPath><clipPath id="fba2440904"><path d="M 7 9 L 23.980469 9 L 23.980469 19 L 7 19 Z M 7 9 " clip-rule="nonzero"/></clipPath><clipPath id="953eb3cd39"><path d="M 6 0 L 23.980469 0 L 23.980469 10 L 6 10 Z M 6 0 " clip-rule="nonzero"/></clipPath><clipPath id="d555279cfd"><path d="M 6 19 L 23.980469 19 L 23.980469 29 L 6 29 Z M 6 19 " clip-rule="nonzero"/></clipPath><clipPath id="5118f4102f"><path d="M 6 9 L 23.980469 9 L 23.980469 20 L 6 20 Z M 6 9 " clip-rule="nonzero"/></clipPath><clipPath id="2a38ed879f"><path d="M 6 19 L 23 19 L 23 29.03125 L 6 29.03125 Z M 6 19 " clip-rule="nonzero"/></clipPath></defs><g clip-path="url(#d4a38136ae)"><path fill="#ff61e6" d="M 23.984375 1.851562 L 22.144531 1.851562 L 22.144531 3.691406 L 20.300781 3.691406 L 20.300781 5.53125 L 18.460938 5.53125 L 18.460938 7.371094 L 16.621094 7.371094 L 16.621094 9.214844 L 14.78125 9.214844 L 14.78125 7.371094 L 12.941406 7.371094 L 12.941406 5.53125 L 11.101562 5.53125 L 11.101562 3.691406 L 9.261719 3.691406 L 9.261719 1.851562 L 7.417969 1.851562 L 7.417969 0.0117188 L 11.101562 0.0117188 L 11.101562 1.851562 L 14.78125 1.851562 L 14.78125 3.691406 L 16.621094 3.691406 L 16.621094 1.851562 L 20.300781 1.851562 L 20.300781 0.0117188 L 23.984375 0.0117188 Z M 23.984375 1.851562 " fill-opacity="1" fill-rule="nonzero"/></g><g clip-path="url(#888b6b8bfc)"><path fill="#ff61e6" d="M 12.941406 20.257812 L 14.78125 20.257812 L 14.78125 22.097656 L 16.621094 22.097656 L 16.621094 20.257812 L 20.300781 20.257812 L 20.300781 18.414062 L 23.984375 18.414062 L 23.984375 20.257812 L 22.144531 20.257812 L 22.144531 22.097656 L 20.300781 22.097656 L 20.300781 23.9375 L 18.460938 23.9375 L 18.460938 25.777344 L 16.621094 25.777344 L 16.621094 27.617188 L 14.78125 27.617188 L 14.78125 25.777344 L 12.941406 25.777344 L 12.941406 23.9375 L 11.101562 23.9375 L 11.101562 22.097656 L 9.261719 22.097656 L 9.261719 20.257812 L 7.417969 20.257812 L 7.417969 18.414062 L 11.101562 18.414062 L 11.101562 20.257812 Z M 12.941406 20.257812 " fill-opacity="1" fill-rule="nonzero"/></g><g clip-path="url(#fba2440904)"><path fill="#ff61e6" d="M 12.941406 11.054688 L 14.78125 11.054688 L 14.78125 12.894531 L 16.621094 12.894531 L 16.621094 11.054688 L 20.300781 11.054688 L 20.300781 9.214844 L 23.984375 9.214844 L 23.984375 11.054688 L 22.144531 11.054688 L 22.144531 12.894531 L 20.300781 12.894531 L 20.300781 14.734375 L 18.460938 14.734375 L 18.460938 16.574219 L 16.621094 16.574219 L 16.621094 18.414062 L 14.78125 18.414062 L 14.78125 16.574219 L 12.941406 16.574219 L 12.941406 14.734375 L 11.101562 14.734375 L 11.101562 12.894531 L 9.261719 12.894531 L 9.261719 11.054688 L 7.417969 11.054688 L 7.417969 9.214844 L 11.101562 9.214844 L 11.101562 11.054688 Z M 12.941406 11.054688 " fill-opacity="1" fill-rule="nonzero"/></g><g clip-path="url(#953eb3cd39)"><path fill="#ffffff" d="M 23.277344 2.554688 L 21.4375 2.554688 L 21.4375 4.398438 L 19.597656 4.398438 L 19.597656 6.238281 L 17.757812 6.238281 L 17.757812 8.078125 L 15.917969 8.078125 L 15.917969 9.917969 L 14.078125 9.917969 L 14.078125 8.078125 L 12.234375 8.078125 L 12.234375 6.238281 L 10.394531 6.238281 L 10.394531 4.398438 L 8.554688 4.398438 L 8.554688 2.554688 L 6.714844 2.554688 L 6.714844 0.714844 L 10.394531 0.714844 L 10.394531 2.554688 L 14.078125 2.554688 L 14.078125 4.398438 L 15.917969 4.398438 L 15.917969 2.554688 L 19.597656 2.554688 L 19.597656 0.714844 L 23.277344 0.714844 Z M 23.277344 2.554688 " fill-opacity="1" fill-rule="nonzero"/></g><g clip-path="url(#d555279cfd)"><path fill="#ffffff" d="M 12.234375 20.960938 L 14.078125 20.960938 L 14.078125 22.800781 L 15.917969 22.800781 L 15.917969 20.960938 L 19.597656 20.960938 L 19.597656 19.121094 L 23.277344 19.121094 L 23.277344 20.960938 L 21.4375 20.960938 L 21.4375 22.800781 L 19.597656 22.800781 L 19.597656 24.640625 L 17.757812 24.640625 L 17.757812 26.480469 L 15.917969 26.480469 L 15.917969 28.324219 L 14.078125 28.324219 L 14.078125 26.480469 L 12.234375 26.480469 L 12.234375 24.640625 L 10.394531 24.640625 L 10.394531 22.800781 L 8.554688 22.800781 L 8.554688 20.960938 L 6.714844 20.960938 L 6.714844 19.121094 L 10.394531 19.121094 L 10.394531 20.960938 Z M 12.234375 20.960938 " fill-opacity="1" fill-rule="nonzero"/></g><g clip-path="url(#5118f4102f)"><path fill="#ffffff" d="M 12.234375 11.757812 L 14.078125 11.757812 L 14.078125 13.597656 L 15.917969 13.597656 L 15.917969 11.757812 L 19.597656 11.757812 L 19.597656 9.917969 L 23.277344 9.917969 L 23.277344 11.757812 L 21.4375 11.757812 L 21.4375 13.597656 L 19.597656 13.597656 L 19.597656 15.4375 L 17.757812 15.4375 L 17.757812 17.28125 L 15.917969 17.28125 L 15.917969 19.121094 L 14.078125 19.121094 L 14.078125 17.28125 L 12.234375 17.28125 L 12.234375 15.4375 L 10.394531 15.4375 L 10.394531 13.597656 L 8.554688 13.597656 L 8.554688 11.757812 L 6.714844 11.757812 L 6.714844 9.917969 L 10.394531 9.917969 L 10.394531 11.757812 Z M 12.234375 11.757812 " fill-opacity="1" fill-rule="nonzero"/></g><path fill="#017f99" d="M 22.582031 3.253906 L 20.738281 3.253906 L 20.738281 5.09375 L 18.898438 5.09375 L 18.898438 6.9375 L 17.058594 6.9375 L 17.058594 8.777344 L 15.21875 8.777344 L 15.21875 10.617188 L 13.378906 10.617188 L 13.378906 8.777344 L 11.539062 8.777344 L 11.539062 6.9375 L 9.699219 6.9375 L 9.699219 5.09375 L 7.855469 5.09375 L 7.855469 3.253906 L 6.015625 3.253906 L 6.015625 1.414062 L 9.699219 1.414062 L 9.699219 3.253906 L 13.378906 3.253906 L 13.378906 5.09375 L 15.21875 5.09375 L 15.21875 3.253906 L 18.898438 3.253906 L 18.898438 1.414062 L 22.582031 1.414062 Z M 22.582031 3.253906 " fill-opacity="1" fill-rule="nonzero"/><g clip-path="url(#2a38ed879f)"><path fill="#017f99" d="M 11.539062 21.660156 L 13.378906 21.660156 L 13.378906 23.5 L 15.21875 23.5 L 15.21875 21.660156 L 18.898438 21.660156 L 18.898438 19.820312 L 22.582031 19.820312 L 22.582031 21.660156 L 20.738281 21.660156 L 20.738281 23.5 L 18.898438 23.5 L 18.898438 25.339844 L 17.058594 25.339844 L 17.058594 27.179688 L 15.21875 27.179688 L 15.21875 29.019531 L 13.378906 29.019531 L 13.378906 27.179688 L 11.539062 27.179688 L 11.539062 25.339844 L 9.699219 25.339844 L 9.699219 23.5 L 7.855469 23.5 L 7.855469 21.660156 L 6.015625 21.660156 L 6.015625 19.820312 L 9.699219 19.820312 L 9.699219 21.660156 Z M 11.539062 21.660156 " fill-opacity="1" fill-rule="nonzero"/></g><path fill="#017f99" d="M 11.539062 12.457031 L 13.378906 12.457031 L 13.378906 14.296875 L 15.21875 14.296875 L 15.21875 12.457031 L 18.898438 12.457031 L 18.898438 10.617188 L 22.582031 10.617188 L 22.582031 12.457031 L 20.738281 12.457031 L 20.738281 14.296875 L 18.898438 14.296875 L 18.898438 16.136719 L 17.058594 16.136719 L 17.058594 17.976562 L 15.21875 17.976562 L 15.21875 19.820312 L 13.378906 19.820312 L 13.378906 17.976562 L 11.539062 17.976562 L 11.539062 16.136719 L 9.699219 16.136719 L 9.699219 14.296875 L 7.855469 14.296875 L 7.855469 12.457031 L 6.015625 12.457031 L 6.015625 10.617188 L 9.699219 10.617188 L 9.699219 12.457031 Z M 11.539062 12.457031 " fill-opacity="1" fill-rule="nonzero"/></svg>