<svg xmlns="http://www.w3.org/2000/svg" xmlns:xlink="http://www.w3.org/1999/xlink" width="400" zoomAndPan="magnify" viewBox="0 0 300 299.999988" height="400" preserveAspectRatio="xMidYMid meet" version="1.0"><defs><g/></defs><g fill="#ffffff" fill-opacity="1"><g transform="translate(34.61721, 54.953272)"><g><path d="M 0 -2.890625 L 0 -23.078125 L 5.765625 -23.078125 L 5.765625 -20.1875 L 8.65625 -20.1875 L 8.65625 -17.3125 L 11.546875 -17.3125 L 11.546875 -14.421875 L 14.421875 -14.421875 L 14.421875 -23.078125 L 20.1875 -23.078125 L 20.1875 -2.890625 L 14.421875 -2.890625 L 14.421875 -8.65625 L 11.546875 -8.65625 L 11.546875 -11.546875 L 8.65625 -11.546875 L 8.65625 -14.421875 L 5.765625 -14.421875 L 5.765625 -2.890625 Z M 0 -2.890625 "/></g></g></g><g fill="#ffffff" fill-opacity="1"><g transform="translate(57.693052, 54.953272)"><g><path d="M 20.1875 -11.546875 L 20.1875 -2.890625 L 14.421875 -2.890625 L 14.421875 -5.765625 L 5.765625 -5.765625 L 5.765625 -2.890625 L 0 -2.890625 L 0 -11.546875 L 2.890625 -11.546875 L 2.890625 -14.421875 L 5.765625 -14.421875 L 5.765625 -17.3125 L 8.65625 -17.3125 L 8.65625 -20.1875 L 5.765625 -20.1875 L 5.765625 -23.078125 L 11.546875 -23.078125 L 11.546875 -20.1875 L 14.421875 -20.1875 L 14.421875 -14.421875 L 17.3125 -14.421875 L 17.3125 -11.546875 Z M 17.3125 -20.1875 L 14.421875 -20.1875 L 14.421875 -23.078125 L 17.3125 -23.078125 Z M 5.765625 -20.1875 L 5.765625 -17.3125 L 2.890625 -17.3125 L 2.890625 -20.1875 Z M 14.421875 -11.546875 L 11.546875 -11.546875 L 11.546875 -14.421875 L 8.65625 -14.421875 L 8.65625 -11.546875 L 5.765625 -11.546875 L 5.765625 -8.65625 L 14.421875 -8.65625 Z M 14.421875 -11.546875 "/></g></g></g><g fill="#ffffff" fill-opacity="1"><g transform="translate(80.768894, 54.953272)"><g><path d="M 2.890625 -2.890625 L 2.890625 -5.765625 L 0 -5.765625 L 0 -20.1875 L 2.890625 -20.1875 L 2.890625 -23.078125 L 17.3125 -23.078125 L 17.3125 -20.1875 L 20.1875 -20.1875 L 20.1875 -5.765625 L 17.3125 -5.765625 L 17.3125 -2.890625 Z M 5.765625 -5.765625 L 14.421875 -5.765625 L 14.421875 -20.1875 L 5.765625 -20.1875 Z M 5.765625 -5.765625 "/></g></g></g><g fill="#ffffff" fill-opacity="1"><g transform="translate(103.844736, 54.953272)"><g/></g></g><g fill="#ffffff" fill-opacity="1"><g transform="translate(126.920578, 54.953272)"><g><path d="M 0 -2.890625 L 0 -23.078125 L 17.3125 -23.078125 L 17.3125 -20.1875 L 20.1875 -20.1875 L 20.1875 -11.546875 L 17.3125 -11.546875 L 17.3125 -8.65625 L 5.765625 -8.65625 L 5.765625 -2.890625 Z M 5.765625 -11.546875 L 14.421875 -11.546875 L 14.421875 -20.1875 L 5.765625 -20.1875 Z M 5.765625 -11.546875 "/></g></g></g><g fill="#ffffff" fill-opacity="1"><g transform="translate(149.99642, 54.953272)"><g><path d="M 0 -2.890625 L 0 -23.078125 L 20.1875 -23.078125 L 20.1875 -20.1875 L 5.765625 -20.1875 L 5.765625 -14.421875 L 17.3125 -14.421875 L 17.3125 -11.546875 L 5.765625 -11.546875 L 5.765625 -5.765625 L 20.1875 -5.765625 L 20.1875 -2.890625 Z M 0 -2.890625 "/></g></g></g><g fill="#ffffff" fill-opacity="1"><g transform="translate(173.072263, 54.953272)"><g><path d="M 0 -2.890625 L 0 -23.078125 L 17.3125 -23.078125 L 17.3125 -20.1875 L 20.1875 -20.1875 L 20.1875 -11.546875 L 14.421875 -11.546875 L 14.421875 -8.65625 L 17.3125 -8.65625 L 17.3125 -5.765625 L 20.1875 -5.765625 L 20.1875 -2.890625 L 11.546875 -2.890625 L 11.546875 -5.765625 L 8.65625 -5.765625 L 8.65625 -8.65625 L 5.765625 -8.65625 L 5.765625 -2.890625 Z M 5.765625 -11.546875 L 11.546875 -11.546875 L 11.546875 -14.421875 L 14.421875 -14.421875 L 14.421875 -20.1875 L 5.765625 -20.1875 Z M 5.765625 -11.546875 "/></g></g></g><g fill="#ffffff" fill-opacity="1"><g transform="translate(196.148105, 54.953272)"><g><path d="M 5.765625 -2.890625 L 5.765625 -5.765625 L 2.890625 -5.765625 L 2.890625 -8.65625 L 0 -8.65625 L 0 -17.3125 L 2.890625 -17.3125 L 2.890625 -20.1875 L 5.765625 -20.1875 L 5.765625 -23.078125 L 17.3125 -23.078125 L 17.3125 -20.1875 L 20.1875 -20.1875 L 20.1875 -17.3125 L 14.421875 -17.3125 L 14.421875 -20.1875 L 8.65625 -20.1875 L 8.65625 -17.3125 L 5.765625 -17.3125 L 5.765625 -8.65625 L 8.65625 -8.65625 L 8.65625 -5.765625 L 14.421875 -5.765625 L 14.421875 -8.65625 L 20.1875 -8.65625 L 20.1875 -5.765625 L 17.3125 -5.765625 L 17.3125 -2.890625 Z M 5.765625 -2.890625 "/></g></g></g><g fill="#ffffff" fill-opacity="1"><g transform="translate(219.223947, 54.953272)"><g><path d="M 0 -2.890625 L 0 -17.3125 L 2.890625 -17.3125 L 2.890625 -20.1875 L 5.765625 -20.1875 L 5.765625 -23.078125 L 14.421875 -23.078125 L 14.421875 -20.1875 L 17.3125 -20.1875 L 17.3125 -17.3125 L 20.1875 -17.3125 L 20.1875 -2.890625 L 14.421875 -2.890625 L 14.421875 -8.65625 L 5.765625 -8.65625 L 5.765625 -2.890625 Z M 5.765625 -11.546875 L 14.421875 -11.546875 L 14.421875 -17.3125 L 11.546875 -17.3125 L 11.546875 -20.1875 L 8.65625 -20.1875 L 8.65625 -17.3125 L 5.765625 -17.3125 Z M 5.765625 -11.546875 "/></g></g></g><g fill="#ffffff" fill-opacity="1"><g transform="translate(242.30015, 54.953272)"><g/></g></g><g fill="#ffffff" fill-opacity="1"><g transform="translate(0.00676717, 86.974185)"><g><path d="M 0 -2.890625 L 0 -23.078125 L 20.1875 -23.078125 L 20.1875 -20.1875 L 5.765625 -20.1875 L 5.765625 -14.421875 L 17.3125 -14.421875 L 17.3125 -11.546875 L 5.765625 -11.546875 L 5.765625 -5.765625 L 20.1875 -5.765625 L 20.1875 -2.890625 Z M 0 -2.890625 "/></g></g></g><g fill="#ffffff" fill-opacity="1"><g transform="translate(23.082609, 86.974185)"><g><path d="M 2.890625 -2.890625 L 2.890625 -5.765625 L 0 -5.765625 L 0 -8.65625 L 5.765625 -8.65625 L 5.765625 -5.765625 L 14.421875 -5.765625 L 14.421875 -11.546875 L 2.890625 -11.546875 L 2.890625 -14.421875 L 0 -14.421875 L 0 -20.1875 L 2.890625 -20.1875 L 2.890625 -23.078125 L 17.3125 -23.078125 L 17.3125 -20.1875 L 20.1875 -20.1875 L 20.1875 -17.3125 L 14.421875 -17.3125 L 14.421875 -20.1875 L 5.765625 -20.1875 L 5.765625 -14.421875 L 17.3125 -14.421875 L 17.3125 -11.546875 L 20.1875 -11.546875 L 20.1875 -5.765625 L 17.3125 -5.765625 L 17.3125 -2.890625 Z M 2.890625 -2.890625 "/></g></g></g><g fill="#ffffff" fill-opacity="1"><g transform="translate(46.158452, 86.974185)"><g><path d="M 2.890625 -2.890625 L 2.890625 -5.765625 L 0 -5.765625 L 0 -8.65625 L 5.765625 -8.65625 L 5.765625 -5.765625 L 14.421875 -5.765625 L 14.421875 -11.546875 L 2.890625 -11.546875 L 2.890625 -14.421875 L 0 -14.421875 L 0 -20.1875 L 2.890625 -20.1875 L 2.890625 -23.078125 L 17.3125 -23.078125 L 17.3125 -20.1875 L 20.1875 -20.1875 L 20.1875 -17.3125 L 14.421875 -17.3125 L 14.421875 -20.1875 L 5.765625 -20.1875 L 5.765625 -14.421875 L 17.3125 -14.421875 L 17.3125 -11.546875 L 20.1875 -11.546875 L 20.1875 -5.765625 L 17.3125 -5.765625 L 17.3125 -2.890625 Z M 2.890625 -2.890625 "/></g></g></g><g fill="#ffffff" fill-opacity="1"><g transform="translate(69.234294, 86.974185)"><g><path d="M 0 -2.890625 L 0 -17.3125 L 2.890625 -17.3125 L 2.890625 -20.1875 L 5.765625 -20.1875 L 5.765625 -23.078125 L 14.421875 -23.078125 L 14.421875 -20.1875 L 17.3125 -20.1875 L 17.3125 -17.3125 L 20.1875 -17.3125 L 20.1875 -2.890625 L 14.421875 -2.890625 L 14.421875 -8.65625 L 5.765625 -8.65625 L 5.765625 -2.890625 Z M 5.765625 -11.546875 L 14.421875 -11.546875 L 14.421875 -17.3125 L 11.546875 -17.3125 L 11.546875 -20.1875 L 8.65625 -20.1875 L 8.65625 -17.3125 L 5.765625 -17.3125 Z M 5.765625 -11.546875 "/></g></g></g><g fill="#ffffff" fill-opacity="1"><g transform="translate(92.310136, 86.974185)"><g/></g></g><g fill="#ffffff" fill-opacity="1"><g transform="translate(115.385978, 86.974185)"><g><path d="M 0 -2.890625 L 0 -17.3125 L 2.890625 -17.3125 L 2.890625 -20.1875 L 5.765625 -20.1875 L 5.765625 -23.078125 L 14.421875 -23.078125 L 14.421875 -20.1875 L 17.3125 -20.1875 L 17.3125 -17.3125 L 20.1875 -17.3125 L 20.1875 -2.890625 L 14.421875 -2.890625 L 14.421875 -8.65625 L 5.765625 -8.65625 L 5.765625 -2.890625 Z M 5.765625 -11.546875 L 14.421875 -11.546875 L 14.421875 -17.3125 L 11.546875 -17.3125 L 11.546875 -20.1875 L 8.65625 -20.1875 L 8.65625 -17.3125 L 5.765625 -17.3125 Z M 5.765625 -11.546875 "/></g></g></g><g fill="#ffffff" fill-opacity="1"><g transform="translate(138.46182, 86.974185)"><g><path d="M 8.65625 -2.890625 L 8.65625 -5.765625 L 5.765625 -5.765625 L 5.765625 -8.65625 L 2.890625 -8.65625 L 2.890625 -11.546875 L 0 -11.546875 L 0 -23.078125 L 5.765625 -23.078125 L 5.765625 -14.421875 L 8.65625 -14.421875 L 8.65625 -11.546875 L 11.546875 -11.546875 L 11.546875 -14.421875 L 14.421875 -14.421875 L 14.421875 -23.078125 L 20.1875 -23.078125 L 20.1875 -11.546875 L 17.3125 -11.546875 L 17.3125 -8.65625 L 14.421875 -8.65625 L 14.421875 -5.765625 L 11.546875 -5.765625 L 11.546875 -2.890625 Z M 8.65625 -2.890625 "/></g></g></g><g fill="#ffffff" fill-opacity="1"><g transform="translate(161.537662, 86.974185)"><g><path d="M 0 -2.890625 L 0 -23.078125 L 20.1875 -23.078125 L 20.1875 -20.1875 L 5.765625 -20.1875 L 5.765625 -14.421875 L 17.3125 -14.421875 L 17.3125 -11.546875 L 5.765625 -11.546875 L 5.765625 -5.765625 L 20.1875 -5.765625 L 20.1875 -2.890625 Z M 0 -2.890625 "/></g></g></g><g fill="#ffffff" fill-opacity="1"><g transform="translate(184.613505, 86.974185)"><g><path d="M 0 -2.890625 L 0 -23.078125 L 5.765625 -23.078125 L 5.765625 -20.1875 L 8.65625 -20.1875 L 8.65625 -17.3125 L 11.546875 -17.3125 L 11.546875 -14.421875 L 14.421875 -14.421875 L 14.421875 -23.078125 L 20.1875 -23.078125 L 20.1875 -2.890625 L 14.421875 -2.890625 L 14.421875 -8.65625 L 11.546875 -8.65625 L 11.546875 -11.546875 L 8.65625 -11.546875 L 8.65625 -14.421875 L 5.765625 -14.421875 L 5.765625 -2.890625 Z M 0 -2.890625 "/></g></g></g><g fill="#ffffff" fill-opacity="1"><g transform="translate(207.689347, 86.974185)"><g><path d="M 8.65625 -2.890625 L 8.65625 -20.1875 L 2.890625 -20.1875 L 2.890625 -23.078125 L 20.1875 -23.078125 L 20.1875 -20.1875 L 14.421875 -20.1875 L 14.421875 -2.890625 Z M 8.65625 -2.890625 "/></g></g></g><g fill="#ffffff" fill-opacity="1"><g transform="translate(230.765189, 86.974185)"><g><path d="M 2.890625 -2.890625 L 2.890625 -5.765625 L 0 -5.765625 L 0 -23.078125 L 5.765625 -23.078125 L 5.765625 -5.765625 L 14.421875 -5.765625 L 14.421875 -23.078125 L 20.1875 -23.078125 L 20.1875 -5.765625 L 17.3125 -5.765625 L 17.3125 -2.890625 Z M 2.890625 -2.890625 "/></g></g></g><g fill="#ffffff" fill-opacity="1"><g transform="translate(253.841045, 86.974185)"><g><path d="M 0 -2.890625 L 0 -23.078125 L 17.3125 -23.078125 L 17.3125 -20.1875 L 20.1875 -20.1875 L 20.1875 -11.546875 L 14.421875 -11.546875 L 14.421875 -8.65625 L 17.3125 -8.65625 L 17.3125 -5.765625 L 20.1875 -5.765625 L 20.1875 -2.890625 L 11.546875 -2.890625 L 11.546875 -5.765625 L 8.65625 -5.765625 L 8.65625 -8.65625 L 5.765625 -8.65625 L 5.765625 -2.890625 Z M 5.765625 -11.546875 L 11.546875 -11.546875 L 11.546875 -14.421875 L 14.421875 -14.421875 L 14.421875 -20.1875 L 5.765625 -20.1875 Z M 5.765625 -11.546875 "/></g></g></g><g fill="#ffffff" fill-opacity="1"><g transform="translate(276.916874, 86.974185)"><g><path d="M 0 -2.890625 L 0 -17.3125 L 2.890625 -17.3125 L 2.890625 -20.1875 L 5.765625 -20.1875 L 5.765625 -23.078125 L 14.421875 -23.078125 L 14.421875 -20.1875 L 17.3125 -20.1875 L 17.3125 -17.3125 L 20.1875 -17.3125 L 20.1875 -2.890625 L 14.421875 -2.890625 L 14.421875 -8.65625 L 5.765625 -8.65625 L 5.765625 -2.890625 Z M 5.765625 -11.546875 L 14.421875 -11.546875 L 14.421875 -17.3125 L 11.546875 -17.3125 L 11.546875 -20.1875 L 8.65625 -20.1875 L 8.65625 -17.3125 L 5.765625 -17.3125 Z M 5.765625 -11.546875 "/></g></g></g><g fill="#ffffff" fill-opacity="1"><g transform="translate(47.17991, 111.999526)"><g><path d="M 0 -0.65625 L 0 -5.265625 L 3.953125 -5.265625 L 3.953125 -4.609375 L 4.609375 -4.609375 L 4.609375 -2.640625 L 3.953125 -2.640625 L 3.953125 -1.96875 L 1.3125 -1.96875 L 1.3125 -0.65625 Z M 1.3125 -2.640625 L 3.296875 -2.640625 L 3.296875 -4.609375 L 1.3125 -4.609375 Z M 1.3125 -2.640625 "/></g></g></g><g fill="#ffffff" fill-opacity="1"><g transform="translate(52.452745, 111.999526)"><g><path d="M 0.65625 -0.65625 L 0.65625 -1.3125 L 0 -1.3125 L 0 -1.96875 L 0.65625 -1.96875 L 0.65625 -2.640625 L 3.296875 -2.640625 L 3.296875 -3.296875 L 0.65625 -3.296875 L 0.65625 -3.953125 L 3.953125 -3.953125 L 3.953125 -3.296875 L 4.609375 -3.296875 L 4.609375 -0.65625 Z M 1.3125 -1.3125 L 3.296875 -1.3125 L 3.296875 -1.96875 L 1.3125 -1.96875 Z M 1.3125 -1.3125 "/></g></g></g><g fill="#ffffff" fill-opacity="1"><g transform="translate(57.725579, 111.999526)"><g><path d="M 1.96875 -3.296875 L 2.640625 -3.296875 L 2.640625 -2.640625 L 1.96875 -2.640625 L 1.96875 -0.65625 L 0.65625 -0.65625 L 0.65625 -3.953125 L 1.96875 -3.953125 Z M 4.609375 -3.953125 L 4.609375 -3.296875 L 2.640625 -3.296875 L 2.640625 -3.953125 Z M 4.609375 -3.953125 "/></g></g></g><g fill="#ffffff" fill-opacity="1"><g transform="translate(62.998414, 111.999526)"><g><path d="M 1.96875 -0.65625 L 1.96875 -3.296875 L 0.65625 -3.296875 L 0.65625 -3.953125 L 1.96875 -3.953125 L 1.96875 -5.265625 L 3.296875 -5.265625 L 3.296875 -3.953125 L 4.609375 -3.953125 L 4.609375 -3.296875 L 3.296875 -3.296875 L 3.296875 -0.65625 Z M 1.96875 -0.65625 "/></g></g></g><g fill="#ffffff" fill-opacity="1"><g transform="translate(68.271249, 111.999526)"><g><path d="M 1.96875 -4.609375 L 1.96875 -5.265625 L 3.296875 -5.265625 L 3.296875 -4.609375 Z M 0.65625 -0.65625 L 0.65625 -1.3125 L 1.96875 -1.3125 L 1.96875 -3.296875 L 1.3125 -3.296875 L 1.3125 -3.953125 L 3.296875 -3.953125 L 3.296875 -1.3125 L 4.609375 -1.3125 L 4.609375 -0.65625 Z M 0.65625 -0.65625 "/></g></g></g><g fill="#ffffff" fill-opacity="1"><g transform="translate(73.544083, 111.999526)"><g><path d="M 0.65625 -0.65625 L 0.65625 -1.3125 L 0 -1.3125 L 0 -3.296875 L 0.65625 -3.296875 L 0.65625 -3.953125 L 4.609375 -3.953125 L 4.609375 -3.296875 L 1.3125 -3.296875 L 1.3125 -1.3125 L 4.609375 -1.3125 L 4.609375 -0.65625 Z M 0.65625 -0.65625 "/></g></g></g><g fill="#ffffff" fill-opacity="1"><g transform="translate(78.816918, 111.999526)"><g><path d="M 1.96875 -4.609375 L 1.96875 -5.265625 L 3.296875 -5.265625 L 3.296875 -4.609375 Z M 0.65625 -0.65625 L 0.65625 -1.3125 L 1.96875 -1.3125 L 1.96875 -3.296875 L 1.3125 -3.296875 L 1.3125 -3.953125 L 3.296875 -3.953125 L 3.296875 -1.3125 L 4.609375 -1.3125 L 4.609375 -0.65625 Z M 0.65625 -0.65625 "/></g></g></g><g fill="#ffffff" fill-opacity="1"><g transform="translate(84.089752, 111.999526)"><g><path d="M 0 0 L 0 -3.953125 L 3.953125 -3.953125 L 3.953125 -3.296875 L 4.609375 -3.296875 L 4.609375 -1.96875 L 3.953125 -1.96875 L 3.953125 -1.3125 L 1.3125 -1.3125 L 1.3125 0 Z M 1.3125 -1.96875 L 3.296875 -1.96875 L 3.296875 -3.296875 L 1.3125 -3.296875 Z M 1.3125 -1.96875 "/></g></g></g><g fill="#ffffff" fill-opacity="1"><g transform="translate(89.362587, 111.999526)"><g><path d="M 0.65625 -0.65625 L 0.65625 -1.3125 L 0 -1.3125 L 0 -3.296875 L 0.65625 -3.296875 L 0.65625 -3.953125 L 3.953125 -3.953125 L 3.953125 -3.296875 L 4.609375 -3.296875 L 4.609375 -1.96875 L 1.3125 -1.96875 L 1.3125 -1.3125 L 3.953125 -1.3125 L 3.953125 -0.65625 Z M 1.3125 -2.640625 L 3.296875 -2.640625 L 3.296875 -3.296875 L 1.3125 -3.296875 Z M 1.3125 -2.640625 "/></g></g></g><g fill="#ffffff" fill-opacity="1"><g transform="translate(99.908256, 111.999526)"><g><path d="M 0.65625 -0.65625 L 0.65625 -1.3125 L 0 -1.3125 L 0 -3.296875 L 0.65625 -3.296875 L 0.65625 -3.953125 L 3.296875 -3.953125 L 3.296875 -5.265625 L 4.609375 -5.265625 L 4.609375 -0.65625 Z M 1.3125 -1.3125 L 3.296875 -1.3125 L 3.296875 -3.296875 L 1.3125 -3.296875 Z M 1.3125 -1.3125 "/></g></g></g><g fill="#ffffff" fill-opacity="1"><g transform="translate(105.181091, 111.999526)"><g><path d="M 0.65625 -0.65625 L 0.65625 -1.3125 L 0 -1.3125 L 0 -3.296875 L 0.65625 -3.296875 L 0.65625 -3.953125 L 3.953125 -3.953125 L 3.953125 -3.296875 L 4.609375 -3.296875 L 4.609375 -1.3125 L 3.953125 -1.3125 L 3.953125 -0.65625 Z M 1.3125 -1.3125 L 3.296875 -1.3125 L 3.296875 -3.296875 L 1.3125 -3.296875 Z M 1.3125 -1.3125 "/></g></g></g><g fill="#ffffff" fill-opacity="1"><g transform="translate(115.72676, 111.999526)"><g><path d="M 0 -0.65625 L 0 -3.953125 L 3.953125 -3.953125 L 3.953125 -3.296875 L 4.609375 -3.296875 L 4.609375 -0.65625 L 3.296875 -0.65625 L 3.296875 -3.296875 L 2.640625 -3.296875 L 2.640625 -0.65625 L 1.3125 -0.65625 L 1.3125 -3.296875 L 0.65625 -3.296875 L 0.65625 -0.65625 Z M 0 -0.65625 "/></g></g></g><g fill="#ffffff" fill-opacity="1"><g transform="translate(120.999595, 111.999526)"><g><path d="M 0.65625 -0.65625 L 0.65625 -1.3125 L 0 -1.3125 L 0 -1.96875 L 0.65625 -1.96875 L 0.65625 -2.640625 L 3.296875 -2.640625 L 3.296875 -3.296875 L 0.65625 -3.296875 L 0.65625 -3.953125 L 3.953125 -3.953125 L 3.953125 -3.296875 L 4.609375 -3.296875 L 4.609375 -0.65625 Z M 1.3125 -1.3125 L 3.296875 -1.3125 L 3.296875 -1.96875 L 1.3125 -1.96875 Z M 1.3125 -1.3125 "/></g></g></g><g fill="#ffffff" fill-opacity="1"><g transform="translate(126.272429, 111.999526)"><g><path d="M 1.96875 -4.609375 L 1.96875 -5.265625 L 3.296875 -5.265625 L 3.296875 -4.609375 Z M 0.65625 -0.65625 L 0.65625 -1.3125 L 1.96875 -1.3125 L 1.96875 -3.296875 L 1.3125 -3.296875 L 1.3125 -3.953125 L 3.296875 -3.953125 L 3.296875 -1.3125 L 4.609375 -1.3125 L 4.609375 -0.65625 Z M 0.65625 -0.65625 "/></g></g></g><g fill="#ffffff" fill-opacity="1"><g transform="translate(131.545264, 111.999526)"><g><path d="M 0.65625 -0.65625 L 0.65625 -1.3125 L 0 -1.3125 L 0 -3.296875 L 0.65625 -3.296875 L 0.65625 -3.953125 L 3.953125 -3.953125 L 3.953125 -3.296875 L 4.609375 -3.296875 L 4.609375 -1.3125 L 3.953125 -1.3125 L 3.953125 -0.65625 Z M 1.3125 -1.3125 L 3.296875 -1.3125 L 3.296875 -3.296875 L 1.3125 -3.296875 Z M 1.3125 -1.3125 "/></g></g></g><g fill="#ffffff" fill-opacity="1"><g transform="translate(136.818099, 111.999526)"><g><path d="M 1.96875 -3.296875 L 2.640625 -3.296875 L 2.640625 -2.640625 L 1.96875 -2.640625 L 1.96875 -0.65625 L 0.65625 -0.65625 L 0.65625 -3.953125 L 1.96875 -3.953125 Z M 4.609375 -3.953125 L 4.609375 -3.296875 L 2.640625 -3.296875 L 2.640625 -3.953125 Z M 4.609375 -3.953125 "/></g></g></g><g fill="#ffffff" fill-opacity="1"><g transform="translate(147.363768, 111.999526)"><g><path d="M 0.65625 -0.65625 L 0.65625 -1.3125 L 0 -1.3125 L 0 -3.296875 L 0.65625 -3.296875 L 0.65625 -3.953125 L 3.953125 -3.953125 L 3.953125 -3.296875 L 4.609375 -3.296875 L 4.609375 -1.96875 L 1.3125 -1.96875 L 1.3125 -1.3125 L 3.953125 -1.3125 L 3.953125 -0.65625 Z M 1.3125 -2.640625 L 3.296875 -2.640625 L 3.296875 -3.296875 L 1.3125 -3.296875 Z M 1.3125 -2.640625 "/></g></g></g><g fill="#ffffff" fill-opacity="1"><g transform="translate(152.636603, 111.999526)"><g><path d="M 1.96875 -0.65625 L 1.96875 -1.3125 L 1.3125 -1.3125 L 1.3125 -1.96875 L 0.65625 -1.96875 L 0.65625 -3.953125 L 1.96875 -3.953125 L 1.96875 -1.96875 L 3.296875 -1.96875 L 3.296875 -3.953125 L 4.609375 -3.953125 L 4.609375 -1.96875 L 3.953125 -1.96875 L 3.953125 -1.3125 L 3.296875 -1.3125 L 3.296875 -0.65625 Z M 1.96875 -0.65625 "/></g></g></g><g fill="#ffffff" fill-opacity="1"><g transform="translate(157.909437, 111.999526)"><g><path d="M 0.65625 -0.65625 L 0.65625 -1.3125 L 0 -1.3125 L 0 -3.296875 L 0.65625 -3.296875 L 0.65625 -3.953125 L 3.953125 -3.953125 L 3.953125 -3.296875 L 4.609375 -3.296875 L 4.609375 -1.96875 L 1.3125 -1.96875 L 1.3125 -1.3125 L 3.953125 -1.3125 L 3.953125 -0.65625 Z M 1.3125 -2.640625 L 3.296875 -2.640625 L 3.296875 -3.296875 L 1.3125 -3.296875 Z M 1.3125 -2.640625 "/></g></g></g><g fill="#ffffff" fill-opacity="1"><g transform="translate(163.182272, 111.999526)"><g><path d="M 0 -0.65625 L 0 -3.953125 L 3.953125 -3.953125 L 3.953125 -3.296875 L 4.609375 -3.296875 L 4.609375 -0.65625 L 3.296875 -0.65625 L 3.296875 -3.296875 L 1.3125 -3.296875 L 1.3125 -0.65625 Z M 0 -0.65625 "/></g></g></g><g fill="#ffffff" fill-opacity="1"><g transform="translate(168.455106, 111.999526)"><g><path d="M 1.96875 -0.65625 L 1.96875 -3.296875 L 0.65625 -3.296875 L 0.65625 -3.953125 L 1.96875 -3.953125 L 1.96875 -5.265625 L 3.296875 -5.265625 L 3.296875 -3.953125 L 4.609375 -3.953125 L 4.609375 -3.296875 L 3.296875 -3.296875 L 3.296875 -0.65625 Z M 1.96875 -0.65625 "/></g></g></g><g fill="#ffffff" fill-opacity="1"><g transform="translate(173.727941, 111.999526)"><g><path d="M 0.65625 -0.65625 L 0.65625 -1.3125 L 0 -1.3125 L 0 -3.296875 L 0.65625 -3.296875 L 0.65625 -3.953125 L 3.953125 -3.953125 L 3.953125 -3.296875 L 4.609375 -3.296875 L 4.609375 -1.3125 L 3.953125 -1.3125 L 3.953125 -0.65625 Z M 1.3125 -1.3125 L 3.296875 -1.3125 L 3.296875 -3.296875 L 1.3125 -3.296875 Z M 1.3125 -1.3125 "/></g></g></g><g fill="#ffffff" fill-opacity="1"><g transform="translate(184.27361, 111.999526)"><g><path d="M 0.65625 -0.65625 L 0.65625 -1.3125 L 0 -1.3125 L 0 -3.296875 L 0.65625 -3.296875 L 0.65625 -3.953125 L 3.296875 -3.953125 L 3.296875 -5.265625 L 4.609375 -5.265625 L 4.609375 -0.65625 Z M 1.3125 -1.3125 L 3.296875 -1.3125 L 3.296875 -3.296875 L 1.3125 -3.296875 Z M 1.3125 -1.3125 "/></g></g></g><g fill="#ffffff" fill-opacity="1"><g transform="translate(189.546445, 111.999526)"><g><path d="M 0.65625 -0.65625 L 0.65625 -1.3125 L 0 -1.3125 L 0 -3.296875 L 0.65625 -3.296875 L 0.65625 -3.953125 L 3.953125 -3.953125 L 3.953125 -3.296875 L 4.609375 -3.296875 L 4.609375 -1.96875 L 1.3125 -1.96875 L 1.3125 -1.3125 L 3.953125 -1.3125 L 3.953125 -0.65625 Z M 1.3125 -2.640625 L 3.296875 -2.640625 L 3.296875 -3.296875 L 1.3125 -3.296875 Z M 1.3125 -2.640625 "/></g></g></g><g fill="#ffffff" fill-opacity="1"><g transform="translate(200.092114, 111.999526)"><g><path d="M 1.96875 -0.65625 L 1.96875 -3.296875 L 0.65625 -3.296875 L 0.65625 -3.953125 L 1.96875 -3.953125 L 1.96875 -5.265625 L 3.296875 -5.265625 L 3.296875 -3.953125 L 4.609375 -3.953125 L 4.609375 -3.296875 L 3.296875 -3.296875 L 3.296875 -0.65625 Z M 1.96875 -0.65625 "/></g></g></g><g fill="#ffffff" fill-opacity="1"><g transform="translate(205.364949, 111.999526)"><g><path d="M 0.65625 -0.65625 L 0.65625 -1.3125 L 0 -1.3125 L 0 -3.296875 L 0.65625 -3.296875 L 0.65625 -3.953125 L 3.953125 -3.953125 L 3.953125 -3.296875 L 4.609375 -3.296875 L 4.609375 -1.96875 L 1.3125 -1.96875 L 1.3125 -1.3125 L 3.953125 -1.3125 L 3.953125 -0.65625 Z M 1.3125 -2.640625 L 3.296875 -2.640625 L 3.296875 -3.296875 L 1.3125 -3.296875 Z M 1.3125 -2.640625 "/></g></g></g><g fill="#ffffff" fill-opacity="1"><g transform="translate(210.637783, 111.999526)"><g><path d="M 0.65625 -0.65625 L 0.65625 -1.3125 L 0 -1.3125 L 0 -3.296875 L 0.65625 -3.296875 L 0.65625 -3.953125 L 4.609375 -3.953125 L 4.609375 -3.296875 L 1.3125 -3.296875 L 1.3125 -1.3125 L 4.609375 -1.3125 L 4.609375 -0.65625 Z M 0.65625 -0.65625 "/></g></g></g><g fill="#ffffff" fill-opacity="1"><g transform="translate(215.910618, 111.999526)"><g><path d="M 0 -0.65625 L 0 -3.953125 L 3.953125 -3.953125 L 3.953125 -3.296875 L 4.609375 -3.296875 L 4.609375 -0.65625 L 3.296875 -0.65625 L 3.296875 -3.296875 L 1.3125 -3.296875 L 1.3125 -0.65625 Z M 0 -0.65625 "/></g></g><g transform="translate(221.183443, 111.999526)"><g><path d="M 0.65625 -0.65625 L 0.65625 -1.3125 L 0 -1.3125 L 0 -3.296875 L 0.65625 -3.296875 L 0.65625 -3.953125 L 3.953125 -3.953125 L 3.953125 -3.296875 L 4.609375 -3.296875 L 4.609375 -1.3125 L 3.953125 -1.3125 L 3.953125 -0.65625 Z M 1.3125 -1.3125 L 3.296875 -1.3125 L 3.296875 -3.296875 L 1.3125 -3.296875 Z M 1.3125 -1.3125 "/></g></g><g transform="translate(226.456267, 111.999526)"><g><path d="M 0.65625 -0.65625 L 0.65625 -1.3125 L 1.96875 -1.3125 L 1.96875 -4.609375 L 1.3125 -4.609375 L 1.3125 -5.265625 L 3.296875 -5.265625 L 3.296875 -1.3125 L 4.609375 -1.3125 L 4.609375 -0.65625 Z M 0.65625 -0.65625 "/></g></g><g transform="translate(231.729092, 111.999526)"><g><path d="M 0.65625 -0.65625 L 0.65625 -1.3125 L 0 -1.3125 L 0 -3.296875 L 0.65625 -3.296875 L 0.65625 -3.953125 L 3.953125 -3.953125 L 3.953125 -3.296875 L 4.609375 -3.296875 L 4.609375 -1.3125 L 3.953125 -1.3125 L 3.953125 -0.65625 Z M 1.3125 -1.3125 L 3.296875 -1.3125 L 3.296875 -3.296875 L 1.3125 -3.296875 Z M 1.3125 -1.3125 "/></g></g><g transform="translate(237.001916, 111.999526)"><g><path d="M 0.65625 0 L 0.65625 -0.65625 L 3.296875 -0.65625 L 3.296875 -1.3125 L 0.65625 -1.3125 L 0.65625 -1.96875 L 0 -1.96875 L 0 -3.296875 L 0.65625 -3.296875 L 0.65625 -3.953125 L 4.609375 -3.953125 L 4.609375 -0.65625 L 3.953125 -0.65625 L 3.953125 0 Z M 1.3125 -1.96875 L 3.296875 -1.96875 L 3.296875 -3.296875 L 1.3125 -3.296875 Z M 1.3125 -1.96875 "/></g></g><g transform="translate(242.274741, 111.999526)"><g><path d="M 1.96875 -4.609375 L 1.96875 -5.265625 L 3.296875 -5.265625 L 3.296875 -4.609375 Z M 0.65625 -0.65625 L 0.65625 -1.3125 L 1.96875 -1.3125 L 1.96875 -3.296875 L 1.3125 -3.296875 L 1.3125 -3.953125 L 3.296875 -3.953125 L 3.296875 -1.3125 L 4.609375 -1.3125 L 4.609375 -0.65625 Z M 0.65625 -0.65625 "/></g></g><g transform="translate(247.547565, 111.999526)"><g><path d="M 0.65625 -0.65625 L 0.65625 -1.3125 L 0 -1.3125 L 0 -1.96875 L 0.65625 -1.96875 L 0.65625 -2.640625 L 3.296875 -2.640625 L 3.296875 -3.296875 L 0.65625 -3.296875 L 0.65625 -3.953125 L 3.953125 -3.953125 L 3.953125 -3.296875 L 4.609375 -3.296875 L 4.609375 -0.65625 Z M 1.3125 -1.3125 L 3.296875 -1.3125 L 3.296875 -1.96875 L 1.3125 -1.96875 Z M 1.3125 -1.3125 "/></g></g></g><g fill="#ffffff" fill-opacity="1"><g transform="translate(89.357357, 119.24966)"><g/></g></g><g fill="#ffffff" fill-opacity="1"><g transform="translate(94.635331, 119.24966)"><g><path d="M 0.65625 -0.65625 L 0.65625 -1.3125 L 0 -1.3125 L 0 -3.296875 L 0.65625 -3.296875 L 0.65625 -3.953125 L 3.953125 -3.953125 L 3.953125 -3.296875 L 4.609375 -3.296875 L 4.609375 -1.96875 L 1.3125 -1.96875 L 1.3125 -1.3125 L 3.953125 -1.3125 L 3.953125 -0.65625 Z M 1.3125 -2.640625 L 3.296875 -2.640625 L 3.296875 -3.296875 L 1.3125 -3.296875 Z M 1.3125 -2.640625 "/></g></g></g><g fill="#ffffff" fill-opacity="1"><g transform="translate(99.908166, 119.24966)"><g/></g></g><g fill="#ffffff" fill-opacity="1"><g transform="translate(105.181, 119.24966)"><g><path d="M 0.65625 -0.65625 L 0.65625 -1.3125 L 0 -1.3125 L 0 -3.296875 L 0.65625 -3.296875 L 0.65625 -3.953125 L 4.609375 -3.953125 L 4.609375 -3.296875 L 1.3125 -3.296875 L 1.3125 -1.3125 L 4.609375 -1.3125 L 4.609375 -0.65625 Z M 0.65625 -0.65625 "/></g></g></g><g fill="#ffffff" fill-opacity="1"><g transform="translate(110.453835, 119.24966)"><g><path d="M 0.65625 -0.65625 L 0.65625 -1.3125 L 0 -1.3125 L 0 -3.296875 L 0.65625 -3.296875 L 0.65625 -3.953125 L 3.953125 -3.953125 L 3.953125 -3.296875 L 4.609375 -3.296875 L 4.609375 -1.3125 L 3.953125 -1.3125 L 3.953125 -0.65625 Z M 1.3125 -1.3125 L 3.296875 -1.3125 L 3.296875 -3.296875 L 1.3125 -3.296875 Z M 1.3125 -1.3125 "/></g></g></g><g fill="#ffffff" fill-opacity="1"><g transform="translate(115.72667, 119.24966)"><g><path d="M 0 -0.65625 L 0 -3.953125 L 3.953125 -3.953125 L 3.953125 -3.296875 L 4.609375 -3.296875 L 4.609375 -0.65625 L 3.296875 -0.65625 L 3.296875 -3.296875 L 2.640625 -3.296875 L 2.640625 -0.65625 L 1.3125 -0.65625 L 1.3125 -3.296875 L 0.65625 -3.296875 L 0.65625 -0.65625 Z M 0 -0.65625 "/></g></g></g><g fill="#ffffff" fill-opacity="1"><g transform="translate(120.999504, 119.24966)"><g><path d="M 0 0 L 0 -3.953125 L 3.953125 -3.953125 L 3.953125 -3.296875 L 4.609375 -3.296875 L 4.609375 -1.96875 L 3.953125 -1.96875 L 3.953125 -1.3125 L 1.3125 -1.3125 L 1.3125 0 Z M 1.3125 -1.96875 L 3.296875 -1.96875 L 3.296875 -3.296875 L 1.3125 -3.296875 Z M 1.3125 -1.96875 "/></g></g></g><g fill="#ffffff" fill-opacity="1"><g transform="translate(126.272339, 119.24966)"><g><path d="M 0.65625 -0.65625 L 0.65625 -1.3125 L 0 -1.3125 L 0 -3.953125 L 1.3125 -3.953125 L 1.3125 -1.3125 L 3.296875 -1.3125 L 3.296875 -3.953125 L 4.609375 -3.953125 L 4.609375 -0.65625 Z M 0.65625 -0.65625 "/></g></g></g><g fill="#ffffff" fill-opacity="1"><g transform="translate(131.545174, 119.24966)"><g><path d="M 1.96875 -0.65625 L 1.96875 -3.296875 L 0.65625 -3.296875 L 0.65625 -3.953125 L 1.96875 -3.953125 L 1.96875 -5.265625 L 3.296875 -5.265625 L 3.296875 -3.953125 L 4.609375 -3.953125 L 4.609375 -3.296875 L 3.296875 -3.296875 L 3.296875 -0.65625 Z M 1.96875 -0.65625 "/></g></g></g><g fill="#ffffff" fill-opacity="1"><g transform="translate(136.818008, 119.24966)"><g><path d="M 0.65625 -0.65625 L 0.65625 -1.3125 L 0 -1.3125 L 0 -1.96875 L 0.65625 -1.96875 L 0.65625 -2.640625 L 3.296875 -2.640625 L 3.296875 -3.296875 L 0.65625 -3.296875 L 0.65625 -3.953125 L 3.953125 -3.953125 L 3.953125 -3.296875 L 4.609375 -3.296875 L 4.609375 -0.65625 Z M 1.3125 -1.3125 L 3.296875 -1.3125 L 3.296875 -1.96875 L 1.3125 -1.96875 Z M 1.3125 -1.3125 "/></g></g></g><g fill="#ffffff" fill-opacity="1"><g transform="translate(142.090843, 119.24966)"><g><path d="M 4.609375 -3.953125 L 4.609375 -3.296875 L 1.3125 -3.296875 L 1.3125 -1.96875 L 4.609375 -1.96875 L 4.609375 -1.3125 L 3.296875 -1.3125 L 3.296875 -0.65625 L 2.640625 -0.65625 L 2.640625 -1.3125 L 0.65625 -1.3125 L 0.65625 -1.96875 L 0 -1.96875 L 0 -3.296875 L 0.65625 -3.296875 L 0.65625 -3.953125 Z M 1.3125 -0.65625 L 2.640625 -0.65625 L 2.640625 0 L 1.3125 0 Z M 1.3125 -0.65625 "/></g></g></g><g fill="#ffffff" fill-opacity="1"><g transform="translate(147.363677, 119.24966)"><g><path d="M 0.65625 -0.65625 L 0.65625 -1.3125 L 0 -1.3125 L 0 -1.96875 L 0.65625 -1.96875 L 0.65625 -2.640625 L 3.296875 -2.640625 L 3.296875 -3.296875 L 0.65625 -3.296875 L 0.65625 -4.609375 L 1.3125 -4.609375 L 1.3125 -5.265625 L 2.640625 -5.265625 L 2.640625 -4.609375 L 3.296875 -4.609375 L 3.296875 -5.265625 L 3.953125 -5.265625 L 3.953125 -4.609375 L 3.296875 -4.609375 L 3.296875 -3.953125 L 3.953125 -3.953125 L 3.953125 -3.296875 L 4.609375 -3.296875 L 4.609375 -0.65625 Z M 1.3125 -3.953125 L 1.96875 -3.953125 L 1.96875 -4.609375 L 1.3125 -4.609375 Z M 1.3125 -1.3125 L 3.296875 -1.3125 L 3.296875 -1.96875 L 1.3125 -1.96875 Z M 1.3125 -1.3125 "/></g></g></g><g fill="#ffffff" fill-opacity="1"><g transform="translate(152.636512, 119.24966)"><g><path d="M 0.65625 -0.65625 L 0.65625 -1.3125 L 0 -1.3125 L 0 -3.296875 L 0.65625 -3.296875 L 0.65625 -3.953125 L 3.953125 -3.953125 L 3.953125 -3.296875 L 4.609375 -3.296875 L 4.609375 -1.3125 L 3.953125 -1.3125 L 3.953125 -0.65625 Z M 1.3125 -1.3125 L 3.296875 -1.3125 L 3.296875 -3.296875 L 1.3125 -3.296875 Z M 1.3125 -1.3125 "/></g></g></g><g fill="#ffffff" fill-opacity="1"><g transform="translate(157.909347, 119.24966)"><g/></g></g><g fill="#ffffff" fill-opacity="1"><g transform="translate(163.182181, 119.24966)"><g><path d="M 0.65625 -0.65625 L 0.65625 -1.3125 L 0 -1.3125 L 0 -3.296875 L 0.65625 -3.296875 L 0.65625 -3.953125 L 3.296875 -3.953125 L 3.296875 -5.265625 L 4.609375 -5.265625 L 4.609375 -0.65625 Z M 1.3125 -1.3125 L 3.296875 -1.3125 L 3.296875 -3.296875 L 1.3125 -3.296875 Z M 1.3125 -1.3125 "/></g></g></g><g fill="#ffffff" fill-opacity="1"><g transform="translate(168.455016, 119.24966)"><g><path d="M 0.65625 -0.65625 L 0.65625 -1.3125 L 0 -1.3125 L 0 -3.296875 L 0.65625 -3.296875 L 0.65625 -3.953125 L 3.953125 -3.953125 L 3.953125 -3.296875 L 4.609375 -3.296875 L 4.609375 -1.3125 L 3.953125 -1.3125 L 3.953125 -0.65625 Z M 1.3125 -1.3125 L 3.296875 -1.3125 L 3.296875 -3.296875 L 1.3125 -3.296875 Z M 1.3125 -1.3125 "/></g></g></g><g fill="#ffffff" fill-opacity="1"><g transform="translate(173.727851, 119.24966)"><g/></g></g><g fill="#ffffff" fill-opacity="1"><g transform="translate(179.000685, 119.24966)"><g><path d="M 0 -0.65625 L 0 -5.265625 L 3.953125 -5.265625 L 3.953125 -4.609375 L 4.609375 -4.609375 L 4.609375 -3.296875 L 3.953125 -3.296875 L 3.953125 -2.640625 L 4.609375 -2.640625 L 4.609375 -1.3125 L 3.953125 -1.3125 L 3.953125 -0.65625 Z M 1.3125 -3.296875 L 3.296875 -3.296875 L 3.296875 -4.609375 L 1.3125 -4.609375 Z M 1.3125 -1.3125 L 3.296875 -1.3125 L 3.296875 -2.640625 L 1.3125 -2.640625 Z M 1.3125 -1.3125 "/></g></g></g><g fill="#ffffff" fill-opacity="1"><g transform="translate(184.27352, 119.24966)"><g><path d="M 1.96875 -3.296875 L 2.640625 -3.296875 L 2.640625 -2.640625 L 1.96875 -2.640625 L 1.96875 -0.65625 L 0.65625 -0.65625 L 0.65625 -3.953125 L 1.96875 -3.953125 Z M 4.609375 -3.953125 L 4.609375 -3.296875 L 2.640625 -3.296875 L 2.640625 -3.953125 Z M 4.609375 -3.953125 "/></g></g></g><g fill="#ffffff" fill-opacity="1"><g transform="translate(189.546354, 119.24966)"><g><path d="M 0.65625 -0.65625 L 0.65625 -1.3125 L 0 -1.3125 L 0 -1.96875 L 0.65625 -1.96875 L 0.65625 -2.640625 L 3.296875 -2.640625 L 3.296875 -3.296875 L 0.65625 -3.296875 L 0.65625 -3.953125 L 3.953125 -3.953125 L 3.953125 -3.296875 L 4.609375 -3.296875 L 4.609375 -0.65625 Z M 1.3125 -1.3125 L 3.296875 -1.3125 L 3.296875 -1.96875 L 1.3125 -1.96875 Z M 1.3125 -1.3125 "/></g></g></g><g fill="#ffffff" fill-opacity="1"><g transform="translate(194.819189, 119.24966)"><g><path d="M 0 -0.65625 L 0 -1.3125 L 3.296875 -1.3125 L 3.296875 -1.96875 L 0.65625 -1.96875 L 0.65625 -2.640625 L 0 -2.640625 L 0 -3.296875 L 0.65625 -3.296875 L 0.65625 -3.953125 L 3.953125 -3.953125 L 3.953125 -3.296875 L 1.3125 -3.296875 L 1.3125 -2.640625 L 3.953125 -2.640625 L 3.953125 -1.96875 L 4.609375 -1.96875 L 4.609375 -1.3125 L 3.953125 -1.3125 L 3.953125 -0.65625 Z M 0 -0.65625 "/></g></g></g><g fill="#ffffff" fill-opacity="1"><g transform="translate(200.092024, 119.24966)"><g><path d="M 1.96875 -4.609375 L 1.96875 -5.265625 L 3.296875 -5.265625 L 3.296875 -4.609375 Z M 0.65625 -0.65625 L 0.65625 -1.3125 L 1.96875 -1.3125 L 1.96875 -3.296875 L 1.3125 -3.296875 L 1.3125 -3.953125 L 3.296875 -3.953125 L 3.296875 -1.3125 L 4.609375 -1.3125 L 4.609375 -0.65625 Z M 0.65625 -0.65625 "/></g></g></g><g fill="#ffffff" fill-opacity="1"><g transform="translate(205.364858, 119.24966)"><g><path d="M 0.65625 -0.65625 L 0.65625 -1.3125 L 1.96875 -1.3125 L 1.96875 -4.609375 L 1.3125 -4.609375 L 1.3125 -5.265625 L 3.296875 -5.265625 L 3.296875 -1.3125 L 4.609375 -1.3125 L 4.609375 -0.65625 Z M 0.65625 -0.65625 "/></g></g></g><g fill="#ffffff" fill-opacity="1"><g transform="translate(23.245929, 260.974303)"><g><path d="M 1.140625 -1.140625 L 1.140625 -2.28125 L 0 -2.28125 L 0 -3.421875 L 2.28125 -3.421875 L 2.28125 -2.28125 L 5.703125 -2.28125 L 5.703125 -4.5625 L 1.140625 -4.5625 L 1.140625 -5.703125 L 0 -5.703125 L 0 -7.984375 L 1.140625 -7.984375 L 1.140625 -9.125 L 6.84375 -9.125 L 6.84375 -7.984375 L 7.984375 -7.984375 L 7.984375 -6.84375 L 5.703125 -6.84375 L 5.703125 -7.984375 L 2.28125 -7.984375 L 2.28125 -5.703125 L 6.84375 -5.703125 L 6.84375 -4.5625 L 7.984375 -4.5625 L 7.984375 -2.28125 L 6.84375 -2.28125 L 6.84375 -1.140625 Z M 1.140625 -1.140625 "/></g></g></g><g fill="#ffffff" fill-opacity="1"><g transform="translate(32.363589, 260.974303)"><g><path d="M 1.140625 -1.140625 L 1.140625 -2.28125 L 0 -2.28125 L 0 -3.421875 L 1.140625 -3.421875 L 1.140625 -4.5625 L 5.703125 -4.5625 L 5.703125 -5.703125 L 1.140625 -5.703125 L 1.140625 -7.984375 L 2.28125 -7.984375 L 2.28125 -9.125 L 4.5625 -9.125 L 4.5625 -7.984375 L 5.703125 -7.984375 L 5.703125 -9.125 L 6.84375 -9.125 L 6.84375 -7.984375 L 5.703125 -7.984375 L 5.703125 -6.84375 L 6.84375 -6.84375 L 6.84375 -5.703125 L 7.984375 -5.703125 L 7.984375 -1.140625 Z M 2.28125 -6.84375 L 3.421875 -6.84375 L 3.421875 -7.984375 L 2.28125 -7.984375 Z M 2.28125 -2.28125 L 5.703125 -2.28125 L 5.703125 -3.421875 L 2.28125 -3.421875 Z M 2.28125 -2.28125 "/></g></g></g><g fill="#ffffff" fill-opacity="1"><g transform="translate(41.481249, 260.974303)"><g><path d="M 1.140625 -1.140625 L 1.140625 -2.28125 L 0 -2.28125 L 0 -5.703125 L 1.140625 -5.703125 L 1.140625 -6.84375 L 6.84375 -6.84375 L 6.84375 -5.703125 L 7.984375 -5.703125 L 7.984375 -2.28125 L 6.84375 -2.28125 L 6.84375 -1.140625 Z M 2.28125 -2.28125 L 5.703125 -2.28125 L 5.703125 -5.703125 L 2.28125 -5.703125 Z M 2.28125 -2.28125 "/></g></g></g><g fill="#ffffff" fill-opacity="1"><g transform="translate(50.59891, 260.974303)"><g/></g></g><g fill="#ffffff" fill-opacity="1"><g transform="translate(59.71657, 260.974303)"><g><path d="M 3.421875 -1.140625 L 3.421875 -2.28125 L 2.28125 -2.28125 L 2.28125 -3.421875 L 1.140625 -3.421875 L 1.140625 -6.84375 L 3.421875 -6.84375 L 3.421875 -3.421875 L 5.703125 -3.421875 L 5.703125 -6.84375 L 7.984375 -6.84375 L 7.984375 -3.421875 L 6.84375 -3.421875 L 6.84375 -2.28125 L 5.703125 -2.28125 L 5.703125 -1.140625 Z M 3.421875 -1.140625 "/></g></g></g><g fill="#ffffff" fill-opacity="1"><g transform="translate(68.83423, 260.974303)"><g><path d="M 1.140625 -1.140625 L 1.140625 -2.28125 L 0 -2.28125 L 0 -3.421875 L 1.140625 -3.421875 L 1.140625 -4.5625 L 5.703125 -4.5625 L 5.703125 -5.703125 L 1.140625 -5.703125 L 1.140625 -6.84375 L 6.84375 -6.84375 L 6.84375 -5.703125 L 7.984375 -5.703125 L 7.984375 -1.140625 Z M 2.28125 -2.28125 L 5.703125 -2.28125 L 5.703125 -3.421875 L 2.28125 -3.421875 Z M 2.28125 -2.28125 "/></g></g></g><g fill="#ffffff" fill-opacity="1"><g transform="translate(77.951891, 260.974303)"><g><path d="M 1.140625 0 L 1.140625 -1.140625 L 5.703125 -1.140625 L 5.703125 -2.28125 L 1.140625 -2.28125 L 1.140625 -3.421875 L 0 -3.421875 L 0 -5.703125 L 1.140625 -5.703125 L 1.140625 -6.84375 L 7.984375 -6.84375 L 7.984375 -1.140625 L 6.84375 -1.140625 L 6.84375 0 Z M 2.28125 -3.421875 L 5.703125 -3.421875 L 5.703125 -5.703125 L 2.28125 -5.703125 Z M 2.28125 -3.421875 "/></g></g></g><g fill="#ffffff" fill-opacity="1"><g transform="translate(87.069551, 260.974303)"><g><path d="M 1.140625 -1.140625 L 1.140625 -2.28125 L 0 -2.28125 L 0 -3.421875 L 1.140625 -3.421875 L 1.140625 -4.5625 L 5.703125 -4.5625 L 5.703125 -5.703125 L 1.140625 -5.703125 L 1.140625 -6.84375 L 6.84375 -6.84375 L 6.84375 -5.703125 L 7.984375 -5.703125 L 7.984375 -1.140625 Z M 2.28125 -2.28125 L 5.703125 -2.28125 L 5.703125 -3.421875 L 2.28125 -3.421875 Z M 2.28125 -2.28125 "/></g></g></g><g fill="#ffffff" fill-opacity="1"><g transform="translate(96.187211, 260.974303)"><g><path d="M 0 -1.140625 L 0 -2.28125 L 5.703125 -2.28125 L 5.703125 -3.421875 L 1.140625 -3.421875 L 1.140625 -4.5625 L 0 -4.5625 L 0 -5.703125 L 1.140625 -5.703125 L 1.140625 -6.84375 L 6.84375 -6.84375 L 6.84375 -5.703125 L 2.28125 -5.703125 L 2.28125 -4.5625 L 6.84375 -4.5625 L 6.84375 -3.421875 L 7.984375 -3.421875 L 7.984375 -2.28125 L 6.84375 -2.28125 L 6.84375 -1.140625 Z M 0 -1.140625 "/></g></g></g><g fill="#ffffff" fill-opacity="1"><g transform="translate(105.304871, 260.974303)"><g/></g></g><g fill="#cb6ce6" fill-opacity="1"><g transform="translate(114.422848, 260.974303)"><g><path d="M 1.140625 -1.140625 L 1.140625 -9.125 L 3.421875 -9.125 L 3.421875 -2.28125 L 7.984375 -2.28125 L 7.984375 -1.140625 Z M 1.140625 -1.140625 "/></g></g></g><g fill="#cb6ce6" fill-opacity="1"><g transform="translate(123.540508, 260.974303)"><g><path d="M 1.140625 -1.140625 L 1.140625 -2.28125 L 3.421875 -2.28125 L 3.421875 -7.984375 L 1.140625 -7.984375 L 1.140625 -9.125 L 7.984375 -9.125 L 7.984375 -7.984375 L 5.703125 -7.984375 L 5.703125 -2.28125 L 7.984375 -2.28125 L 7.984375 -1.140625 Z M 1.140625 -1.140625 "/></g></g></g><g fill="#cb6ce6" fill-opacity="1"><g transform="translate(132.658169, 260.974303)"><g><path d="M 0 -1.140625 L 0 -9.125 L 2.28125 -9.125 L 2.28125 -7.984375 L 3.421875 -7.984375 L 3.421875 -6.84375 L 4.5625 -6.84375 L 4.5625 -7.984375 L 5.703125 -7.984375 L 5.703125 -9.125 L 7.984375 -9.125 L 7.984375 -1.140625 L 5.703125 -1.140625 L 5.703125 -5.703125 L 4.5625 -5.703125 L 4.5625 -3.421875 L 3.421875 -3.421875 L 3.421875 -5.703125 L 2.28125 -5.703125 L 2.28125 -1.140625 Z M 0 -1.140625 "/></g></g></g><g fill="#cb6ce6" fill-opacity="1"><g transform="translate(141.775829, 260.974303)"><g><path d="M 1.140625 -1.140625 L 1.140625 -2.28125 L 3.421875 -2.28125 L 3.421875 -7.984375 L 1.140625 -7.984375 L 1.140625 -9.125 L 7.984375 -9.125 L 7.984375 -7.984375 L 5.703125 -7.984375 L 5.703125 -2.28125 L 7.984375 -2.28125 L 7.984375 -1.140625 Z M 1.140625 -1.140625 "/></g></g></g><g fill="#cb6ce6" fill-opacity="1"><g transform="translate(150.893489, 260.974303)"><g><path d="M 3.421875 -1.140625 L 3.421875 -7.984375 L 1.140625 -7.984375 L 1.140625 -9.125 L 7.984375 -9.125 L 7.984375 -7.984375 L 5.703125 -7.984375 L 5.703125 -1.140625 Z M 3.421875 -1.140625 "/></g></g></g><g fill="#cb6ce6" fill-opacity="1"><g transform="translate(160.01115, 260.974303)"><g><path d="M 0 -1.140625 L 0 -6.84375 L 1.140625 -6.84375 L 1.140625 -7.984375 L 2.28125 -7.984375 L 2.28125 -9.125 L 5.703125 -9.125 L 5.703125 -7.984375 L 6.84375 -7.984375 L 6.84375 -6.84375 L 7.984375 -6.84375 L 7.984375 -1.140625 L 5.703125 -1.140625 L 5.703125 -3.421875 L 2.28125 -3.421875 L 2.28125 -1.140625 Z M 2.28125 -4.5625 L 5.703125 -4.5625 L 5.703125 -6.84375 L 4.5625 -6.84375 L 4.5625 -7.984375 L 3.421875 -7.984375 L 3.421875 -6.84375 L 2.28125 -6.84375 Z M 2.28125 -4.5625 "/></g></g></g><g fill="#cb6ce6" fill-opacity="1"><g transform="translate(169.12881, 260.974303)"><g><path d="M 0 -1.140625 L 0 -9.125 L 5.703125 -9.125 L 5.703125 -7.984375 L 6.84375 -7.984375 L 6.84375 -6.84375 L 7.984375 -6.84375 L 7.984375 -3.421875 L 6.84375 -3.421875 L 6.84375 -2.28125 L 5.703125 -2.28125 L 5.703125 -1.140625 Z M 2.28125 -2.28125 L 4.5625 -2.28125 L 4.5625 -3.421875 L 5.703125 -3.421875 L 5.703125 -6.84375 L 4.5625 -6.84375 L 4.5625 -7.984375 L 2.28125 -7.984375 Z M 2.28125 -2.28125 "/></g></g></g><g fill="#cb6ce6" fill-opacity="1"><g transform="translate(178.24647, 260.974303)"><g><path d="M 0 -1.140625 L 0 -6.84375 L 1.140625 -6.84375 L 1.140625 -7.984375 L 2.28125 -7.984375 L 2.28125 -9.125 L 5.703125 -9.125 L 5.703125 -7.984375 L 6.84375 -7.984375 L 6.84375 -6.84375 L 7.984375 -6.84375 L 7.984375 -1.140625 L 5.703125 -1.140625 L 5.703125 -3.421875 L 2.28125 -3.421875 L 2.28125 -1.140625 Z M 2.28125 -4.5625 L 5.703125 -4.5625 L 5.703125 -6.84375 L 4.5625 -6.84375 L 4.5625 -7.984375 L 3.421875 -7.984375 L 3.421875 -6.84375 L 2.28125 -6.84375 Z M 2.28125 -4.5625 "/></g></g></g><g fill="#cb6ce6" fill-opacity="1"><g transform="translate(187.36413, 260.974303)"><g><path d="M 1.140625 -1.140625 L 1.140625 -2.28125 L 0 -2.28125 L 0 -3.421875 L 2.28125 -3.421875 L 2.28125 -2.28125 L 5.703125 -2.28125 L 5.703125 -4.5625 L 1.140625 -4.5625 L 1.140625 -5.703125 L 0 -5.703125 L 0 -7.984375 L 1.140625 -7.984375 L 1.140625 -9.125 L 6.84375 -9.125 L 6.84375 -7.984375 L 7.984375 -7.984375 L 7.984375 -6.84375 L 5.703125 -6.84375 L 5.703125 -7.984375 L 2.28125 -7.984375 L 2.28125 -5.703125 L 6.84375 -5.703125 L 6.84375 -4.5625 L 7.984375 -4.5625 L 7.984375 -2.28125 L 6.84375 -2.28125 L 6.84375 -1.140625 Z M 1.140625 -1.140625 "/></g></g></g><g fill="#0097b2" fill-opacity="1"><g transform="translate(6.088972, 182.531473)"><g><path d="M 0 -1.140625 L 0 -9.125 L 2.28125 -9.125 L 2.28125 -7.984375 L 3.421875 -7.984375 L 3.421875 -6.84375 L 4.5625 -6.84375 L 4.5625 -7.984375 L 5.703125 -7.984375 L 5.703125 -9.125 L 7.984375 -9.125 L 7.984375 -1.140625 L 5.703125 -1.140625 L 5.703125 -5.703125 L 4.5625 -5.703125 L 4.5625 -3.421875 L 3.421875 -3.421875 L 3.421875 -5.703125 L 2.28125 -5.703125 L 2.28125 -1.140625 Z M 0 -1.140625 "/></g></g></g><g fill="#0097b2" fill-opacity="1"><g transform="translate(15.206632, 182.531473)"><g><path d="M 0 -1.140625 L 0 -9.125 L 7.984375 -9.125 L 7.984375 -7.984375 L 2.28125 -7.984375 L 2.28125 -5.703125 L 6.84375 -5.703125 L 6.84375 -4.5625 L 2.28125 -4.5625 L 2.28125 -2.28125 L 7.984375 -2.28125 L 7.984375 -1.140625 Z M 0 -1.140625 "/></g></g></g><g fill="#0097b2" fill-opacity="1"><g transform="translate(24.324293, 182.531473)"><g><path d="M 1.140625 -1.140625 L 1.140625 -9.125 L 3.421875 -9.125 L 3.421875 -2.28125 L 7.984375 -2.28125 L 7.984375 -1.140625 Z M 1.140625 -1.140625 "/></g></g></g><g fill="#0097b2" fill-opacity="1"><g transform="translate(33.441953, 182.531473)"><g><path d="M 0 -1.140625 L 0 -9.125 L 2.28125 -9.125 L 2.28125 -5.703125 L 5.703125 -5.703125 L 5.703125 -9.125 L 7.984375 -9.125 L 7.984375 -1.140625 L 5.703125 -1.140625 L 5.703125 -4.5625 L 2.28125 -4.5625 L 2.28125 -1.140625 Z M 0 -1.140625 "/></g></g></g><g fill="#0097b2" fill-opacity="1"><g transform="translate(42.559613, 182.531473)"><g><path d="M 1.140625 -1.140625 L 1.140625 -2.28125 L 0 -2.28125 L 0 -7.984375 L 1.140625 -7.984375 L 1.140625 -9.125 L 6.84375 -9.125 L 6.84375 -7.984375 L 7.984375 -7.984375 L 7.984375 -2.28125 L 6.84375 -2.28125 L 6.84375 -1.140625 Z M 2.28125 -2.28125 L 5.703125 -2.28125 L 5.703125 -7.984375 L 2.28125 -7.984375 Z M 2.28125 -2.28125 "/></g></g></g><g fill="#0097b2" fill-opacity="1"><g transform="translate(51.677274, 182.531473)"><g><path d="M 0 -1.140625 L 0 -9.125 L 6.84375 -9.125 L 6.84375 -7.984375 L 7.984375 -7.984375 L 7.984375 -4.5625 L 5.703125 -4.5625 L 5.703125 -3.421875 L 6.84375 -3.421875 L 6.84375 -2.28125 L 7.984375 -2.28125 L 7.984375 -1.140625 L 4.5625 -1.140625 L 4.5625 -2.28125 L 3.421875 -2.28125 L 3.421875 -3.421875 L 2.28125 -3.421875 L 2.28125 -1.140625 Z M 2.28125 -4.5625 L 4.5625 -4.5625 L 4.5625 -5.703125 L 5.703125 -5.703125 L 5.703125 -7.984375 L 2.28125 -7.984375 Z M 2.28125 -4.5625 "/></g></g></g><g fill="#0097b2" fill-opacity="1"><g transform="translate(60.794934, 182.531473)"><g><path d="M 0 -1.140625 L 0 -9.125 L 7.984375 -9.125 L 7.984375 -7.984375 L 2.28125 -7.984375 L 2.28125 -5.703125 L 6.84375 -5.703125 L 6.84375 -4.5625 L 2.28125 -4.5625 L 2.28125 -2.28125 L 7.984375 -2.28125 L 7.984375 -1.140625 Z M 0 -1.140625 "/></g></g></g><g fill="#0097b2" fill-opacity="1"><g transform="translate(69.912594, 182.531473)"><g><path d="M 1.140625 -1.140625 L 1.140625 -2.28125 L 0 -2.28125 L 0 -3.421875 L 2.28125 -3.421875 L 2.28125 -2.28125 L 5.703125 -2.28125 L 5.703125 -4.5625 L 1.140625 -4.5625 L 1.140625 -5.703125 L 0 -5.703125 L 0 -7.984375 L 1.140625 -7.984375 L 1.140625 -9.125 L 6.84375 -9.125 L 6.84375 -7.984375 L 7.984375 -7.984375 L 7.984375 -6.84375 L 5.703125 -6.84375 L 5.703125 -7.984375 L 2.28125 -7.984375 L 2.28125 -5.703125 L 6.84375 -5.703125 L 6.84375 -4.5625 L 7.984375 -4.5625 L 7.984375 -2.28125 L 6.84375 -2.28125 L 6.84375 -1.140625 Z M 1.140625 -1.140625 "/></g></g></g><g fill="#0097b2" fill-opacity="1"><g transform="translate(79.030254, 182.531473)"><g/></g></g><g fill="#ffffff" fill-opacity="1"><g transform="translate(88.1482, 182.531473)"><g><path d="M 2.28125 -2.28125 L 3.421875 -2.28125 L 3.421875 -1.140625 L 1.140625 -1.140625 L 1.140625 -2.28125 L 0 -2.28125 L 0 -6.84375 L 2.28125 -6.84375 Z M 4.5625 -6.84375 L 4.5625 -2.28125 L 3.421875 -2.28125 L 3.421875 -6.84375 Z M 7.984375 -6.84375 L 7.984375 -2.28125 L 6.84375 -2.28125 L 6.84375 -1.140625 L 4.5625 -1.140625 L 4.5625 -2.28125 L 5.703125 -2.28125 L 5.703125 -6.84375 Z M 7.984375 -6.84375 "/></g></g></g><g fill="#ffffff" fill-opacity="1"><g transform="translate(97.26586, 182.531473)"><g><path d="M 1.140625 -1.140625 L 1.140625 -2.28125 L 0 -2.28125 L 0 -5.703125 L 1.140625 -5.703125 L 1.140625 -6.84375 L 6.84375 -6.84375 L 6.84375 -5.703125 L 7.984375 -5.703125 L 7.984375 -2.28125 L 6.84375 -2.28125 L 6.84375 -1.140625 Z M 2.28125 -2.28125 L 5.703125 -2.28125 L 5.703125 -5.703125 L 2.28125 -5.703125 Z M 2.28125 -2.28125 "/></g></g></g><g fill="#ffffff" fill-opacity="1"><g transform="translate(106.38352, 182.531473)"><g><path d="M 3.421875 -5.703125 L 4.5625 -5.703125 L 4.5625 -4.5625 L 3.421875 -4.5625 L 3.421875 -1.140625 L 1.140625 -1.140625 L 1.140625 -6.84375 L 3.421875 -6.84375 Z M 7.984375 -6.84375 L 7.984375 -5.703125 L 4.5625 -5.703125 L 4.5625 -6.84375 Z M 7.984375 -6.84375 "/></g></g></g><g fill="#ffffff" fill-opacity="1"><g transform="translate(115.50118, 182.531473)"><g><path d="M 0 -1.140625 L 0 -9.125 L 2.28125 -9.125 L 2.28125 -4.5625 L 4.5625 -4.5625 L 4.5625 -5.703125 L 5.703125 -5.703125 L 5.703125 -6.84375 L 7.984375 -6.84375 L 7.984375 -5.703125 L 6.84375 -5.703125 L 6.84375 -4.5625 L 5.703125 -4.5625 L 5.703125 -3.421875 L 6.84375 -3.421875 L 6.84375 -2.28125 L 7.984375 -2.28125 L 7.984375 -1.140625 L 5.703125 -1.140625 L 5.703125 -2.28125 L 4.5625 -2.28125 L 4.5625 -3.421875 L 2.28125 -3.421875 L 2.28125 -1.140625 Z M 0 -1.140625 "/></g></g></g><g fill="#ffffff" fill-opacity="1"><g transform="translate(124.618841, 182.531473)"><g><path d="M 0 -1.140625 L 0 -2.28125 L 5.703125 -2.28125 L 5.703125 -3.421875 L 1.140625 -3.421875 L 1.140625 -4.5625 L 0 -4.5625 L 0 -5.703125 L 1.140625 -5.703125 L 1.140625 -6.84375 L 6.84375 -6.84375 L 6.84375 -5.703125 L 2.28125 -5.703125 L 2.28125 -4.5625 L 6.84375 -4.5625 L 6.84375 -3.421875 L 7.984375 -3.421875 L 7.984375 -2.28125 L 6.84375 -2.28125 L 6.84375 -1.140625 Z M 0 -1.140625 "/></g></g></g><g fill="#ffffff" fill-opacity="1"><g transform="translate(133.736501, 182.531473)"><g><path d="M 0 -1.140625 L 0 -9.125 L 2.28125 -9.125 L 2.28125 -6.84375 L 6.84375 -6.84375 L 6.84375 -5.703125 L 7.984375 -5.703125 L 7.984375 -1.140625 L 5.703125 -1.140625 L 5.703125 -5.703125 L 2.28125 -5.703125 L 2.28125 -1.140625 Z M 0 -1.140625 "/></g></g></g><g fill="#ffffff" fill-opacity="1"><g transform="translate(142.854161, 182.531473)"><g><path d="M 1.140625 -1.140625 L 1.140625 -2.28125 L 0 -2.28125 L 0 -5.703125 L 1.140625 -5.703125 L 1.140625 -6.84375 L 6.84375 -6.84375 L 6.84375 -5.703125 L 7.984375 -5.703125 L 7.984375 -2.28125 L 6.84375 -2.28125 L 6.84375 -1.140625 Z M 2.28125 -2.28125 L 5.703125 -2.28125 L 5.703125 -5.703125 L 2.28125 -5.703125 Z M 2.28125 -2.28125 "/></g></g></g><g fill="#ffffff" fill-opacity="1"><g transform="translate(151.971822, 182.531473)"><g><path d="M 0 0 L 0 -6.84375 L 6.84375 -6.84375 L 6.84375 -5.703125 L 7.984375 -5.703125 L 7.984375 -3.421875 L 6.84375 -3.421875 L 6.84375 -2.28125 L 2.28125 -2.28125 L 2.28125 0 Z M 2.28125 -3.421875 L 5.703125 -3.421875 L 5.703125 -5.703125 L 2.28125 -5.703125 Z M 2.28125 -3.421875 "/></g></g></g><g fill="#ffffff" fill-opacity="1"><g transform="translate(161.089482, 182.531473)"><g><path d="M 0 -1.140625 L 0 -2.28125 L 5.703125 -2.28125 L 5.703125 -3.421875 L 1.140625 -3.421875 L 1.140625 -4.5625 L 0 -4.5625 L 0 -5.703125 L 1.140625 -5.703125 L 1.140625 -6.84375 L 6.84375 -6.84375 L 6.84375 -5.703125 L 2.28125 -5.703125 L 2.28125 -4.5625 L 6.84375 -4.5625 L 6.84375 -3.421875 L 7.984375 -3.421875 L 7.984375 -2.28125 L 6.84375 -2.28125 L 6.84375 -1.140625 Z M 0 -1.140625 "/></g></g></g><g fill="#ffffff" fill-opacity="1"><g transform="translate(56.845688, 221.752896)"><g><path d="M 0 -1.140625 L 0 -9.125 L 7.984375 -9.125 L 7.984375 -7.984375 L 2.28125 -7.984375 L 2.28125 -5.703125 L 6.84375 -5.703125 L 6.84375 -4.5625 L 2.28125 -4.5625 L 2.28125 -2.28125 L 7.984375 -2.28125 L 7.984375 -1.140625 Z M 0 -1.140625 "/></g></g></g><g fill="#ffffff" fill-opacity="1"><g transform="translate(65.963348, 221.752896)"><g><path d="M 0 -1.140625 L 0 -2.28125 L 1.140625 -2.28125 L 1.140625 -3.421875 L 2.28125 -3.421875 L 2.28125 -4.5625 L 1.140625 -4.5625 L 1.140625 -5.703125 L 0 -5.703125 L 0 -6.84375 L 2.28125 -6.84375 L 2.28125 -5.703125 L 3.421875 -5.703125 L 3.421875 -4.5625 L 4.5625 -4.5625 L 4.5625 -5.703125 L 5.703125 -5.703125 L 5.703125 -6.84375 L 7.984375 -6.84375 L 7.984375 -5.703125 L 6.84375 -5.703125 L 6.84375 -4.5625 L 5.703125 -4.5625 L 5.703125 -3.421875 L 6.84375 -3.421875 L 6.84375 -2.28125 L 7.984375 -2.28125 L 7.984375 -1.140625 L 5.703125 -1.140625 L 5.703125 -2.28125 L 4.5625 -2.28125 L 4.5625 -3.421875 L 3.421875 -3.421875 L 3.421875 -2.28125 L 2.28125 -2.28125 L 2.28125 -1.140625 Z M 0 -1.140625 "/></g></g></g><g fill="#ffffff" fill-opacity="1"><g transform="translate(75.081008, 221.752896)"><g><path d="M 0 0 L 0 -6.84375 L 6.84375 -6.84375 L 6.84375 -5.703125 L 7.984375 -5.703125 L 7.984375 -3.421875 L 6.84375 -3.421875 L 6.84375 -2.28125 L 2.28125 -2.28125 L 2.28125 0 Z M 2.28125 -3.421875 L 5.703125 -3.421875 L 5.703125 -5.703125 L 2.28125 -5.703125 Z M 2.28125 -3.421875 "/></g></g></g><g fill="#ffffff" fill-opacity="1"><g transform="translate(84.198668, 221.752896)"><g><path d="M 1.140625 -1.140625 L 1.140625 -2.28125 L 0 -2.28125 L 0 -5.703125 L 1.140625 -5.703125 L 1.140625 -6.84375 L 6.84375 -6.84375 L 6.84375 -5.703125 L 7.984375 -5.703125 L 7.984375 -3.421875 L 2.28125 -3.421875 L 2.28125 -2.28125 L 6.84375 -2.28125 L 6.84375 -1.140625 Z M 2.28125 -4.5625 L 5.703125 -4.5625 L 5.703125 -5.703125 L 2.28125 -5.703125 Z M 2.28125 -4.5625 "/></g></g></g><g fill="#ffffff" fill-opacity="1"><g transform="translate(93.316329, 221.752896)"><g><path d="M 3.421875 -5.703125 L 4.5625 -5.703125 L 4.5625 -4.5625 L 3.421875 -4.5625 L 3.421875 -1.140625 L 1.140625 -1.140625 L 1.140625 -6.84375 L 3.421875 -6.84375 Z M 7.984375 -6.84375 L 7.984375 -5.703125 L 4.5625 -5.703125 L 4.5625 -6.84375 Z M 7.984375 -6.84375 "/></g></g></g><g fill="#ffffff" fill-opacity="1"><g transform="translate(102.433989, 221.752896)"><g><path d="M 3.421875 -7.984375 L 3.421875 -9.125 L 5.703125 -9.125 L 5.703125 -7.984375 Z M 1.140625 -1.140625 L 1.140625 -2.28125 L 3.421875 -2.28125 L 3.421875 -5.703125 L 2.28125 -5.703125 L 2.28125 -6.84375 L 5.703125 -6.84375 L 5.703125 -2.28125 L 7.984375 -2.28125 L 7.984375 -1.140625 Z M 1.140625 -1.140625 "/></g></g></g><g fill="#ffffff" fill-opacity="1"><g transform="translate(111.551649, 221.752896)"><g><path d="M 1.140625 -1.140625 L 1.140625 -2.28125 L 0 -2.28125 L 0 -5.703125 L 1.140625 -5.703125 L 1.140625 -7.984375 L 2.28125 -7.984375 L 2.28125 -9.125 L 5.703125 -9.125 L 5.703125 -7.984375 L 6.84375 -7.984375 L 6.84375 -5.703125 L 7.984375 -5.703125 L 7.984375 -3.421875 L 2.28125 -3.421875 L 2.28125 -2.28125 L 6.84375 -2.28125 L 6.84375 -1.140625 Z M 3.421875 -6.84375 L 4.5625 -6.84375 L 4.5625 -7.984375 L 3.421875 -7.984375 Z M 2.28125 -4.5625 L 5.703125 -4.5625 L 5.703125 -5.703125 L 2.28125 -5.703125 Z M 2.28125 -4.5625 "/></g></g></g><g fill="#ffffff" fill-opacity="1"><g transform="translate(120.66931, 221.752896)"><g><path d="M 0 -1.140625 L 0 -6.84375 L 6.84375 -6.84375 L 6.84375 -5.703125 L 7.984375 -5.703125 L 7.984375 -1.140625 L 5.703125 -1.140625 L 5.703125 -5.703125 L 2.28125 -5.703125 L 2.28125 -1.140625 Z M 0 -1.140625 "/></g></g></g><g fill="#ffffff" fill-opacity="1"><g transform="translate(129.78697, 221.752896)"><g><path d="M 1.140625 -1.140625 L 1.140625 -2.28125 L 0 -2.28125 L 0 -5.703125 L 1.140625 -5.703125 L 1.140625 -6.84375 L 7.984375 -6.84375 L 7.984375 -5.703125 L 2.28125 -5.703125 L 2.28125 -2.28125 L 7.984375 -2.28125 L 7.984375 -1.140625 Z M 1.140625 -1.140625 "/></g></g></g><g fill="#ffffff" fill-opacity="1"><g transform="translate(138.90463, 221.752896)"><g><path d="M 3.421875 -7.984375 L 3.421875 -9.125 L 5.703125 -9.125 L 5.703125 -7.984375 Z M 1.140625 -1.140625 L 1.140625 -2.28125 L 3.421875 -2.28125 L 3.421875 -5.703125 L 2.28125 -5.703125 L 2.28125 -6.84375 L 5.703125 -6.84375 L 5.703125 -2.28125 L 7.984375 -2.28125 L 7.984375 -1.140625 Z M 1.140625 -1.140625 "/></g></g></g><g fill="#ffffff" fill-opacity="1"><g transform="translate(148.02229, 221.752896)"><g><path d="M 1.140625 -1.140625 L 1.140625 -2.28125 L 0 -2.28125 L 0 -3.421875 L 1.140625 -3.421875 L 1.140625 -4.5625 L 5.703125 -4.5625 L 5.703125 -5.703125 L 1.140625 -5.703125 L 1.140625 -6.84375 L 6.84375 -6.84375 L 6.84375 -5.703125 L 7.984375 -5.703125 L 7.984375 -1.140625 Z M 2.28125 -2.28125 L 5.703125 -2.28125 L 5.703125 -3.421875 L 2.28125 -3.421875 Z M 2.28125 -2.28125 "/></g></g></g><g fill="#ffffff" fill-opacity="1"><g transform="translate(157.139951, 221.752896)"><g/></g></g><g fill="#ffffff" fill-opacity="1"><g transform="translate(166.257611, 221.752896)"><g><path d="M 1.140625 -1.140625 L 1.140625 -2.28125 L 0 -2.28125 L 0 -5.703125 L 1.140625 -5.703125 L 1.140625 -6.84375 L 6.84375 -6.84375 L 6.84375 -5.703125 L 7.984375 -5.703125 L 7.984375 -3.421875 L 2.28125 -3.421875 L 2.28125 -2.28125 L 6.84375 -2.28125 L 6.84375 -1.140625 Z M 2.28125 -4.5625 L 5.703125 -4.5625 L 5.703125 -5.703125 L 2.28125 -5.703125 Z M 2.28125 -4.5625 "/></g></g></g><g fill="#ffffff" fill-opacity="1"><g transform="translate(175.375271, 221.752896)"><g><path d="M 0 -1.140625 L 0 -6.84375 L 6.84375 -6.84375 L 6.84375 -5.703125 L 7.984375 -5.703125 L 7.984375 -1.140625 L 5.703125 -1.140625 L 5.703125 -5.703125 L 4.5625 -5.703125 L 4.5625 -1.140625 L 2.28125 -1.140625 L 2.28125 -5.703125 L 1.140625 -5.703125 L 1.140625 -1.140625 Z M 0 -1.140625 "/></g></g></g><g fill="#ffffff" fill-opacity="1"><g transform="translate(184.492932, 221.752896)"><g/></g></g><g fill="#ffde59" fill-opacity="1"><g transform="translate(193.611066, 221.752896)"><g><path d="M 2.28125 -1.140625 L 2.28125 -2.28125 L 1.140625 -2.28125 L 1.140625 -3.421875 L 0 -3.421875 L 0 -6.84375 L 1.140625 -6.84375 L 1.140625 -7.984375 L 2.28125 -7.984375 L 2.28125 -9.125 L 6.84375 -9.125 L 6.84375 -7.984375 L 7.984375 -7.984375 L 7.984375 -6.84375 L 5.703125 -6.84375 L 5.703125 -7.984375 L 3.421875 -7.984375 L 3.421875 -6.84375 L 2.28125 -6.84375 L 2.28125 -3.421875 L 3.421875 -3.421875 L 3.421875 -2.28125 L 5.703125 -2.28125 L 5.703125 -3.421875 L 7.984375 -3.421875 L 7.984375 -2.28125 L 6.84375 -2.28125 L 6.84375 -1.140625 Z M 2.28125 -1.140625 "/></g></g></g><g fill="#ffde59" fill-opacity="1"><g transform="translate(202.728726, 221.752896)"><g><path d="M 1.140625 -1.140625 L 1.140625 -2.28125 L 0 -2.28125 L 0 -7.984375 L 1.140625 -7.984375 L 1.140625 -9.125 L 6.84375 -9.125 L 6.84375 -7.984375 L 7.984375 -7.984375 L 7.984375 -2.28125 L 6.84375 -2.28125 L 6.84375 -1.140625 Z M 2.28125 -2.28125 L 5.703125 -2.28125 L 5.703125 -7.984375 L 2.28125 -7.984375 Z M 2.28125 -2.28125 "/></g></g></g><g fill="#ffde59" fill-opacity="1"><g transform="translate(211.846386, 221.752896)"><g><path d="M 0 -1.140625 L 0 -9.125 L 2.28125 -9.125 L 2.28125 -7.984375 L 3.421875 -7.984375 L 3.421875 -6.84375 L 4.5625 -6.84375 L 4.5625 -7.984375 L 5.703125 -7.984375 L 5.703125 -9.125 L 7.984375 -9.125 L 7.984375 -1.140625 L 5.703125 -1.140625 L 5.703125 -5.703125 L 4.5625 -5.703125 L 4.5625 -3.421875 L 3.421875 -3.421875 L 3.421875 -5.703125 L 2.28125 -5.703125 L 2.28125 -1.140625 Z M 0 -1.140625 "/></g></g></g><g fill="#ffde59" fill-opacity="1"><g transform="translate(220.964046, 221.752896)"><g><path d="M 0 -1.140625 L 0 -9.125 L 6.84375 -9.125 L 6.84375 -7.984375 L 7.984375 -7.984375 L 7.984375 -4.5625 L 6.84375 -4.5625 L 6.84375 -3.421875 L 2.28125 -3.421875 L 2.28125 -1.140625 Z M 2.28125 -4.5625 L 5.703125 -4.5625 L 5.703125 -7.984375 L 2.28125 -7.984375 Z M 2.28125 -4.5625 "/></g></g></g><g fill="#ffde59" fill-opacity="1"><g transform="translate(230.081707, 221.752896)"><g><path d="M 0 -1.140625 L 0 -9.125 L 7.984375 -9.125 L 7.984375 -7.984375 L 2.28125 -7.984375 L 2.28125 -5.703125 L 6.84375 -5.703125 L 6.84375 -4.5625 L 2.28125 -4.5625 L 2.28125 -2.28125 L 7.984375 -2.28125 L 7.984375 -1.140625 Z M 0 -1.140625 "/></g></g></g><g fill="#ffde59" fill-opacity="1"><g transform="translate(239.199367, 221.752896)"><g><path d="M 3.421875 -1.140625 L 3.421875 -7.984375 L 1.140625 -7.984375 L 1.140625 -9.125 L 7.984375 -9.125 L 7.984375 -7.984375 L 5.703125 -7.984375 L 5.703125 -1.140625 Z M 3.421875 -1.140625 "/></g></g></g><g fill="#ffde59" fill-opacity="1"><g transform="translate(248.317027, 221.752896)"><g><path d="M 1.140625 -1.140625 L 1.140625 -2.28125 L 3.421875 -2.28125 L 3.421875 -7.984375 L 1.140625 -7.984375 L 1.140625 -9.125 L 7.984375 -9.125 L 7.984375 -7.984375 L 5.703125 -7.984375 L 5.703125 -2.28125 L 7.984375 -2.28125 L 7.984375 -1.140625 Z M 1.140625 -1.140625 "/></g></g></g><g fill="#ffde59" fill-opacity="1"><g transform="translate(257.434688, 221.752896)"><g><path d="M 7.984375 -7.984375 L 7.984375 -6.84375 L 5.703125 -6.84375 L 5.703125 -7.984375 L 3.421875 -7.984375 L 3.421875 -6.84375 L 2.28125 -6.84375 L 2.28125 -4.5625 L 3.421875 -4.5625 L 3.421875 -3.421875 L 5.703125 -3.421875 L 5.703125 -4.5625 L 7.984375 -4.5625 L 7.984375 -3.421875 L 6.84375 -3.421875 L 6.84375 -2.28125 L 5.703125 -2.28125 L 5.703125 -1.140625 L 4.5625 -1.140625 L 4.5625 -2.28125 L 2.28125 -2.28125 L 2.28125 -3.421875 L 1.140625 -3.421875 L 1.140625 -4.5625 L 0 -4.5625 L 0 -6.84375 L 1.140625 -6.84375 L 1.140625 -7.984375 L 2.28125 -7.984375 L 2.28125 -9.125 L 6.84375 -9.125 L 6.84375 -7.984375 Z M 2.28125 -1.140625 L 4.5625 -1.140625 L 4.5625 0 L 2.28125 0 Z M 2.28125 -1.140625 "/></g></g></g><g fill="#ffde59" fill-opacity="1"><g transform="translate(266.552348, 221.752896)"><g><path d="M 1.140625 -1.140625 L 1.140625 -2.28125 L 0 -2.28125 L 0 -5.703125 L 1.140625 -5.703125 L 1.140625 -7.984375 L 2.28125 -7.984375 L 2.28125 -9.125 L 4.5625 -9.125 L 4.5625 -7.984375 L 5.703125 -7.984375 L 5.703125 -9.125 L 6.84375 -9.125 L 6.84375 -7.984375 L 5.703125 -7.984375 L 5.703125 -6.84375 L 6.84375 -6.84375 L 6.84375 -5.703125 L 7.984375 -5.703125 L 7.984375 -2.28125 L 6.84375 -2.28125 L 6.84375 -1.140625 Z M 2.28125 -6.84375 L 3.421875 -6.84375 L 3.421875 -7.984375 L 2.28125 -7.984375 Z M 2.28125 -2.28125 L 5.703125 -2.28125 L 5.703125 -5.703125 L 2.28125 -5.703125 Z M 2.28125 -2.28125 "/></g></g></g><g fill="#ffde59" fill-opacity="1"><g transform="translate(275.670008, 221.752896)"><g><path d="M 0 -1.140625 L 0 -9.125 L 7.984375 -9.125 L 7.984375 -7.984375 L 2.28125 -7.984375 L 2.28125 -5.703125 L 6.84375 -5.703125 L 6.84375 -4.5625 L 2.28125 -4.5625 L 2.28125 -2.28125 L 7.984375 -2.28125 L 7.984375 -1.140625 Z M 0 -1.140625 "/></g></g></g><g fill="#ffde59" fill-opacity="1"><g transform="translate(284.787668, 221.752896)"><g><path d="M 1.140625 -1.140625 L 1.140625 -2.28125 L 0 -2.28125 L 0 -3.421875 L 2.28125 -3.421875 L 2.28125 -2.28125 L 5.703125 -2.28125 L 5.703125 -4.5625 L 1.140625 -4.5625 L 1.140625 -5.703125 L 0 -5.703125 L 0 -7.984375 L 1.140625 -7.984375 L 1.140625 -9.125 L 6.84375 -9.125 L 6.84375 -7.984375 L 7.984375 -7.984375 L 7.984375 -6.84375 L 5.703125 -6.84375 L 5.703125 -7.984375 L 2.28125 -7.984375 L 2.28125 -5.703125 L 6.84375 -5.703125 L 6.84375 -4.5625 L 7.984375 -4.5625 L 7.984375 -2.28125 L 6.84375 -2.28125 L 6.84375 -1.140625 Z M 1.140625 -1.140625 "/></g></g></g></svg>