<svg xmlns="http://www.w3.org/2000/svg" xmlns:xlink="http://www.w3.org/1999/xlink" width="1920" zoomAndPan="magnify" viewBox="0 0 1440 809.999993" height="1080" preserveAspectRatio="xMidYMid meet" version="1.0"><defs><clipPath id="906e47bb41"><path d="M 819 282 L 903 282 L 903 373 L 819 373 Z M 819 282 " clip-rule="nonzero"/></clipPath><clipPath id="cf71b4fc91"><path d="M 1061.371094 243.625 L 949.964844 435.648438 L 805.949219 352.089844 L 917.355469 160.070312 Z M 1061.371094 243.625 " clip-rule="nonzero"/></clipPath><clipPath id="8a33444087"><path d="M 1061.371094 243.625 L 949.964844 435.648438 L 805.949219 352.089844 L 917.355469 160.070312 Z M 1061.371094 243.625 " clip-rule="nonzero"/></clipPath><clipPath id="303d3c87ea"><path d="M 1061.371094 243.625 L 949.964844 435.648438 L 805.949219 352.089844 L 917.355469 160.070312 Z M 1061.371094 243.625 " clip-rule="nonzero"/></clipPath><clipPath id="e293384422"><path d="M 906 201 L 1004 201 L 1004 300 L 906 300 Z M 906 201 " clip-rule="nonzero"/></clipPath><clipPath id="8813bbc2b1"><path d="M 1061.371094 243.625 L 949.964844 435.648438 L 805.949219 352.089844 L 917.355469 160.070312 Z M 1061.371094 243.625 " clip-rule="nonzero"/></clipPath><clipPath id="7f8d47b646"><path d="M 1061.371094 243.625 L 949.964844 435.648438 L 805.949219 352.089844 L 917.355469 160.070312 Z M 1061.371094 243.625 " clip-rule="nonzero"/></clipPath><clipPath id="bda690762a"><path d="M 1061.371094 243.625 L 949.964844 435.648438 L 805.949219 352.089844 L 917.355469 160.070312 Z M 1061.371094 243.625 " clip-rule="nonzero"/></clipPath><clipPath id="5634043553"><path d="M 924 316 L 978 316 L 978 386 L 924 386 Z M 924 316 " clip-rule="nonzero"/></clipPath><clipPath id="51ae3c207b"><path d="M 1061.371094 243.625 L 949.964844 435.648438 L 805.949219 352.089844 L 917.355469 160.070312 Z M 1061.371094 243.625 " clip-rule="nonzero"/></clipPath><clipPath id="a21ef0ac0b"><path d="M 1061.371094 243.625 L 949.964844 435.648438 L 805.949219 352.089844 L 917.355469 160.070312 Z M 1061.371094 243.625 " clip-rule="nonzero"/></clipPath><clipPath id="0b8d63db38"><path d="M 1061.371094 243.625 L 949.964844 435.648438 L 805.949219 352.089844 L 917.355469 160.070312 Z M 1061.371094 243.625 " clip-rule="nonzero"/></clipPath><clipPath id="d71a220d30"><path d="M 936 335 L 987 335 L 987 374 L 936 374 Z M 936 335 " clip-rule="nonzero"/></clipPath><clipPath id="67106fbcf8"><path d="M 1061.371094 243.625 L 949.964844 435.648438 L 805.949219 352.089844 L 917.355469 160.070312 Z M 1061.371094 243.625 " clip-rule="nonzero"/></clipPath><clipPath id="389bf83769"><path d="M 1061.371094 243.625 L 949.964844 435.648438 L 805.949219 352.089844 L 917.355469 160.070312 Z M 1061.371094 243.625 " clip-rule="nonzero"/></clipPath><clipPath id="53e130dcd7"><path d="M 1061.371094 243.625 L 949.964844 435.648438 L 805.949219 352.089844 L 917.355469 160.070312 Z M 1061.371094 243.625 " clip-rule="nonzero"/></clipPath><clipPath id="44c3bd163f"><path d="M 942 208 L 1014 208 L 1014 295 L 942 295 Z M 942 208 " clip-rule="nonzero"/></clipPath><clipPath id="2ebd9e71d9"><path d="M 1061.371094 243.625 L 949.964844 435.648438 L 805.949219 352.089844 L 917.355469 160.070312 Z M 1061.371094 243.625 " clip-rule="nonzero"/></clipPath><clipPath id="12519b344d"><path d="M 1061.371094 243.625 L 949.964844 435.648438 L 805.949219 352.089844 L 917.355469 160.070312 Z M 1061.371094 243.625 " clip-rule="nonzero"/></clipPath><clipPath id="bc850005bd"><path d="M 1061.371094 243.625 L 949.964844 435.648438 L 805.949219 352.089844 L 917.355469 160.070312 Z M 1061.371094 243.625 " clip-rule="nonzero"/></clipPath><clipPath id="0386e42e7c"><path d="M 843 300 L 899 300 L 899 368 L 843 368 Z M 843 300 " clip-rule="nonzero"/></clipPath><clipPath id="059e44688d"><path d="M 1061.371094 243.625 L 949.964844 435.648438 L 805.949219 352.089844 L 917.355469 160.070312 Z M 1061.371094 243.625 " clip-rule="nonzero"/></clipPath><clipPath id="5ca8f7a79f"><path d="M 1061.371094 243.625 L 949.964844 435.648438 L 805.949219 352.089844 L 917.355469 160.070312 Z M 1061.371094 243.625 " clip-rule="nonzero"/></clipPath><clipPath id="eebdf0beec"><path d="M 1061.371094 243.625 L 949.964844 435.648438 L 805.949219 352.089844 L 917.355469 160.070312 Z M 1061.371094 243.625 " clip-rule="nonzero"/></clipPath><clipPath id="a2712e3a35"><path d="M 961 220 L 1019 220 L 1019 290 L 961 290 Z M 961 220 " clip-rule="nonzero"/></clipPath><clipPath id="801d9866b4"><path d="M 1061.371094 243.625 L 949.964844 435.648438 L 805.949219 352.089844 L 917.355469 160.070312 Z M 1061.371094 243.625 " clip-rule="nonzero"/></clipPath><clipPath id="b4af891885"><path d="M 1061.371094 243.625 L 949.964844 435.648438 L 805.949219 352.089844 L 917.355469 160.070312 Z M 1061.371094 243.625 " clip-rule="nonzero"/></clipPath><clipPath id="a8c5363be1"><path d="M 1061.371094 243.625 L 949.964844 435.648438 L 805.949219 352.089844 L 917.355469 160.070312 Z M 1061.371094 243.625 " clip-rule="nonzero"/></clipPath><clipPath id="fb189e678f"><path d="M 953 349 L 992 349 L 992 381 L 953 381 Z M 953 349 " clip-rule="nonzero"/></clipPath><clipPath id="c1b2e8b180"><path d="M 1061.371094 243.625 L 949.964844 435.648438 L 805.949219 352.089844 L 917.355469 160.070312 Z M 1061.371094 243.625 " clip-rule="nonzero"/></clipPath><clipPath id="50b26c2f5f"><path d="M 1061.371094 243.625 L 949.964844 435.648438 L 805.949219 352.089844 L 917.355469 160.070312 Z M 1061.371094 243.625 " clip-rule="nonzero"/></clipPath><clipPath id="9849387dcc"><path d="M 1061.371094 243.625 L 949.964844 435.648438 L 805.949219 352.089844 L 917.355469 160.070312 Z M 1061.371094 243.625 " clip-rule="nonzero"/></clipPath><clipPath id="a096067a96"><path d="M 855 307 L 908 307 L 908 363 L 855 363 Z M 855 307 " clip-rule="nonzero"/></clipPath><clipPath id="240fa4b41c"><path d="M 1061.371094 243.625 L 949.964844 435.648438 L 805.949219 352.089844 L 917.355469 160.070312 Z M 1061.371094 243.625 " clip-rule="nonzero"/></clipPath><clipPath id="119b9339de"><path d="M 1061.371094 243.625 L 949.964844 435.648438 L 805.949219 352.089844 L 917.355469 160.070312 Z M 1061.371094 243.625 " clip-rule="nonzero"/></clipPath><clipPath id="e895a741cb"><path d="M 1061.371094 243.625 L 949.964844 435.648438 L 805.949219 352.089844 L 917.355469 160.070312 Z M 1061.371094 243.625 " clip-rule="nonzero"/></clipPath><clipPath id="67a49b2e81"><path d="M 668.652344 394.859375 L 766 394.859375 L 766 451 L 668.652344 451 Z M 668.652344 394.859375 " clip-rule="nonzero"/></clipPath><clipPath id="1f255407f2"><path d="M 793 422 L 890.652344 422 L 890.652344 506 L 793 506 Z M 793 422 " clip-rule="nonzero"/></clipPath><clipPath id="6185e42750"><path d="M 807 464 L 890.652344 464 L 890.652344 520 L 807 520 Z M 807 464 " clip-rule="nonzero"/></clipPath><clipPath id="5d415350da"><path d="M 724 533 L 752 533 L 752 561.359375 L 724 561.359375 Z M 724 533 " clip-rule="nonzero"/></clipPath><clipPath id="1c840faccf"><path d="M 544 491 L 641 491 L 641 565 L 544 565 Z M 544 491 " clip-rule="nonzero"/></clipPath><clipPath id="b405eb5c6d"><path d="M 378.617188 512.042969 L 562.488281 387.640625 L 655.789062 525.546875 L 471.917969 649.945312 Z M 378.617188 512.042969 " clip-rule="nonzero"/></clipPath><clipPath id="72967ac4de"><path d="M 378.617188 512.042969 L 562.488281 387.640625 L 655.789062 525.546875 L 471.917969 649.945312 Z M 378.617188 512.042969 " clip-rule="nonzero"/></clipPath><clipPath id="a4a3c77429"><path d="M 378.617188 512.042969 L 562.488281 387.640625 L 655.789062 525.546875 L 471.917969 649.945312 Z M 378.617188 512.042969 " clip-rule="nonzero"/></clipPath><clipPath id="e91794674e"><path d="M 417 503 L 518 503 L 518 596 L 417 596 Z M 417 503 " clip-rule="nonzero"/></clipPath><clipPath id="aabaa87ffb"><path d="M 378.617188 512.042969 L 562.488281 387.640625 L 655.789062 525.546875 L 471.917969 649.945312 Z M 378.617188 512.042969 " clip-rule="nonzero"/></clipPath><clipPath id="2f8973e6a6"><path d="M 378.617188 512.042969 L 562.488281 387.640625 L 655.789062 525.546875 L 471.917969 649.945312 Z M 378.617188 512.042969 " clip-rule="nonzero"/></clipPath><clipPath id="0962d7ae21"><path d="M 378.617188 512.042969 L 562.488281 387.640625 L 655.789062 525.546875 L 471.917969 649.945312 Z M 378.617188 512.042969 " clip-rule="nonzero"/></clipPath><clipPath id="db5951930c"><path d="M 497 433 L 552 433 L 552 500 L 497 500 Z M 497 433 " clip-rule="nonzero"/></clipPath><clipPath id="bcfe9cafbb"><path d="M 378.617188 512.042969 L 562.488281 387.640625 L 655.789062 525.546875 L 471.917969 649.945312 Z M 378.617188 512.042969 " clip-rule="nonzero"/></clipPath><clipPath id="b7d94cf32f"><path d="M 378.617188 512.042969 L 562.488281 387.640625 L 655.789062 525.546875 L 471.917969 649.945312 Z M 378.617188 512.042969 " clip-rule="nonzero"/></clipPath><clipPath id="22bc11cd9d"><path d="M 378.617188 512.042969 L 562.488281 387.640625 L 655.789062 525.546875 L 471.917969 649.945312 Z M 378.617188 512.042969 " clip-rule="nonzero"/></clipPath><clipPath id="a7060246c2"><path d="M 489 441 L 540 441 L 540 481 L 489 481 Z M 489 441 " clip-rule="nonzero"/></clipPath><clipPath id="c285d19720"><path d="M 378.617188 512.042969 L 562.488281 387.640625 L 655.789062 525.546875 L 471.917969 649.945312 Z M 378.617188 512.042969 " clip-rule="nonzero"/></clipPath><clipPath id="46c63d46d9"><path d="M 378.617188 512.042969 L 562.488281 387.640625 L 655.789062 525.546875 L 471.917969 649.945312 Z M 378.617188 512.042969 " clip-rule="nonzero"/></clipPath><clipPath id="d6230e6700"><path d="M 378.617188 512.042969 L 562.488281 387.640625 L 655.789062 525.546875 L 471.917969 649.945312 Z M 378.617188 512.042969 " clip-rule="nonzero"/></clipPath><clipPath id="9fe587bd8a"><path d="M 409 499 L 491 499 L 491 574 L 409 574 Z M 409 499 " clip-rule="nonzero"/></clipPath><clipPath id="8255f7fa6f"><path d="M 378.617188 512.042969 L 562.488281 387.640625 L 655.789062 525.546875 L 471.917969 649.945312 Z M 378.617188 512.042969 " clip-rule="nonzero"/></clipPath><clipPath id="37001a1054"><path d="M 378.617188 512.042969 L 562.488281 387.640625 L 655.789062 525.546875 L 471.917969 649.945312 Z M 378.617188 512.042969 " clip-rule="nonzero"/></clipPath><clipPath id="387ea3ee06"><path d="M 378.617188 512.042969 L 562.488281 387.640625 L 655.789062 525.546875 L 471.917969 649.945312 Z M 378.617188 512.042969 " clip-rule="nonzero"/></clipPath><clipPath id="f607517c00"><path d="M 555 487 L 621 487 L 621 542 L 555 542 Z M 555 487 " clip-rule="nonzero"/></clipPath><clipPath id="e3a8384a3b"><path d="M 378.617188 512.042969 L 562.488281 387.640625 L 655.789062 525.546875 L 471.917969 649.945312 Z M 378.617188 512.042969 " clip-rule="nonzero"/></clipPath><clipPath id="1d9b506a62"><path d="M 378.617188 512.042969 L 562.488281 387.640625 L 655.789062 525.546875 L 471.917969 649.945312 Z M 378.617188 512.042969 " clip-rule="nonzero"/></clipPath><clipPath id="306c91b2ef"><path d="M 378.617188 512.042969 L 562.488281 387.640625 L 655.789062 525.546875 L 471.917969 649.945312 Z M 378.617188 512.042969 " clip-rule="nonzero"/></clipPath><clipPath id="3b294f0daf"><path d="M 413 496 L 475 496 L 475 562 L 413 562 Z M 413 496 " clip-rule="nonzero"/></clipPath><clipPath id="7bbd5ee734"><path d="M 378.617188 512.042969 L 562.488281 387.640625 L 655.789062 525.546875 L 471.917969 649.945312 Z M 378.617188 512.042969 " clip-rule="nonzero"/></clipPath><clipPath id="9ecd5565dd"><path d="M 378.617188 512.042969 L 562.488281 387.640625 L 655.789062 525.546875 L 471.917969 649.945312 Z M 378.617188 512.042969 " clip-rule="nonzero"/></clipPath><clipPath id="5ad950d83b"><path d="M 378.617188 512.042969 L 562.488281 387.640625 L 655.789062 525.546875 L 471.917969 649.945312 Z M 378.617188 512.042969 " clip-rule="nonzero"/></clipPath><clipPath id="f6d1abd383"><path d="M 493 426 L 533 426 L 533 458 L 493 458 Z M 493 426 " clip-rule="nonzero"/></clipPath><clipPath id="135f222072"><path d="M 378.617188 512.042969 L 562.488281 387.640625 L 655.789062 525.546875 L 471.917969 649.945312 Z M 378.617188 512.042969 " clip-rule="nonzero"/></clipPath><clipPath id="a72aeefbef"><path d="M 378.617188 512.042969 L 562.488281 387.640625 L 655.789062 525.546875 L 471.917969 649.945312 Z M 378.617188 512.042969 " clip-rule="nonzero"/></clipPath><clipPath id="3b0c3c7bf8"><path d="M 378.617188 512.042969 L 562.488281 387.640625 L 655.789062 525.546875 L 471.917969 649.945312 Z M 378.617188 512.042969 " clip-rule="nonzero"/></clipPath><clipPath id="eb85065400"><path d="M 547 483 L 610 483 L 610 530 L 547 530 Z M 547 483 " clip-rule="nonzero"/></clipPath><clipPath id="c63e50e354"><path d="M 378.617188 512.042969 L 562.488281 387.640625 L 655.789062 525.546875 L 471.917969 649.945312 Z M 378.617188 512.042969 " clip-rule="nonzero"/></clipPath><clipPath id="c0e61fa011"><path d="M 378.617188 512.042969 L 562.488281 387.640625 L 655.789062 525.546875 L 471.917969 649.945312 Z M 378.617188 512.042969 " clip-rule="nonzero"/></clipPath><clipPath id="e73253095c"><path d="M 378.617188 512.042969 L 562.488281 387.640625 L 655.789062 525.546875 L 471.917969 649.945312 Z M 378.617188 512.042969 " clip-rule="nonzero"/></clipPath></defs><g clip-path="url(#906e47bb41)"><g clip-path="url(#cf71b4fc91)"><g clip-path="url(#8a33444087)"><g clip-path="url(#303d3c87ea)"><path fill="#554e6d" d="M 841.953125 372.980469 L 829.953125 366.015625 L 836.914062 354.015625 L 824.914062 347.054688 L 831.875 335.050781 L 819.875 328.089844 L 840.765625 292.085938 L 852.765625 299.046875 L 859.726562 287.046875 L 871.730469 294.007812 L 878.691406 282.007812 L 902.695312 295.933594 L 880.671875 333.894531 L 858.398438 358.460938 L 848.917969 360.980469 Z M 841.953125 372.980469 " fill-opacity="1" fill-rule="nonzero"/></g></g></g></g><g clip-path="url(#e293384422)"><g clip-path="url(#8813bbc2b1)"><g clip-path="url(#7f8d47b646)"><g clip-path="url(#bda690762a)"><path fill="#554e6d" d="M 964.625 299.78125 L 940.625 285.855469 L 947.585938 273.855469 L 911.582031 252.964844 L 918.546875 240.964844 L 906.542969 234.003906 L 913.507812 222 L 925.507812 228.964844 L 932.472656 216.960938 L 944.472656 223.925781 L 951.4375 211.925781 L 963.4375 218.886719 L 970.398438 206.886719 L 982.402344 213.847656 L 989.363281 201.847656 L 1001.367188 208.808594 L 1003.886719 218.292969 L 978.550781 275.78125 Z M 964.625 299.78125 " fill-opacity="1" fill-rule="nonzero"/></g></g></g></g><g clip-path="url(#5634043553)"><g clip-path="url(#51ae3c207b)"><g clip-path="url(#a21ef0ac0b)"><g clip-path="url(#0b8d63db38)"><path fill="#554e6d" d="M 946.851562 385.714844 L 934.851562 378.753906 L 941.8125 366.753906 L 929.8125 359.789062 L 936.773438 347.789062 L 924.773438 340.824219 L 938.699219 316.824219 L 974.703125 337.710938 L 977.152344 347.3125 L 953.816406 373.714844 Z M 946.851562 385.714844 " fill-opacity="1" fill-rule="nonzero"/></g></g></g></g><g clip-path="url(#d71a220d30)"><g clip-path="url(#67106fbcf8)"><g clip-path="url(#389bf83769)"><g clip-path="url(#53e130dcd7)"><path fill="#bdbac6" d="M 953.816406 373.714844 L 941.8125 366.753906 L 948.777344 354.75 L 936.773438 347.789062 L 943.738281 335.785156 L 967.742188 349.710938 L 974.703125 337.710938 L 986.707031 344.675781 L 979.742188 356.675781 Z M 953.816406 373.714844 " fill-opacity="1" fill-rule="nonzero"/></g></g></g></g><g clip-path="url(#44c3bd163f)"><g clip-path="url(#2ebd9e71d9)"><g clip-path="url(#12519b344d)"><g clip-path="url(#bc850005bd)"><path fill="#bdbac6" d="M 983.589844 294.742188 L 959.589844 280.816406 L 966.550781 268.816406 L 942.546875 254.890625 L 956.472656 230.886719 L 968.476562 237.851562 L 982.402344 213.847656 L 994.402344 220.8125 L 1001.367188 208.808594 L 1013.367188 215.773438 L 1002.226562 234.976562 L 995.914062 273.5 Z M 983.589844 294.742188 " fill-opacity="1" fill-rule="nonzero"/></g></g></g></g><g clip-path="url(#0386e42e7c)"><g clip-path="url(#059e44688d)"><g clip-path="url(#5ca8f7a79f)"><g clip-path="url(#eebdf0beec)"><path fill="#bdbac6" d="M 860.917969 367.941406 L 848.917969 360.980469 L 855.878906 348.976562 L 843.878906 342.015625 L 864.765625 306.011719 L 876.769531 312.972656 L 883.730469 300.972656 L 895.734375 307.933594 L 898.25 317.417969 L 877.363281 353.421875 L 867.878906 355.941406 Z M 860.917969 367.941406 " fill-opacity="1" fill-rule="nonzero"/></g></g></g></g><g clip-path="url(#a2712e3a35)"><g clip-path="url(#801d9866b4)"><g clip-path="url(#b4af891885)"><g clip-path="url(#a8c5363be1)"><path fill="#8a859b" d="M 1002.554688 289.707031 L 966.550781 268.816406 L 973.515625 256.816406 L 961.511719 249.851562 L 968.476562 237.851562 L 980.476562 244.8125 L 994.402344 220.8125 L 1018.40625 234.738281 L 1004.480469 258.738281 L 1016.480469 265.703125 Z M 1002.554688 289.707031 " fill-opacity="1" fill-rule="nonzero"/></g></g></g></g><g clip-path="url(#fb189e678f)"><g clip-path="url(#c1b2e8b180)"><g clip-path="url(#50b26c2f5f)"><g clip-path="url(#9849387dcc)"><path fill="#8a859b" d="M 967.742188 349.710938 L 991.742188 363.636719 L 984.78125 375.640625 L 972.777344 368.675781 L 965.816406 380.679688 L 953.816406 373.714844 Z M 967.742188 349.710938 " fill-opacity="1" fill-rule="nonzero"/></g></g></g></g><g clip-path="url(#a096067a96)"><g clip-path="url(#240fa4b41c)"><g clip-path="url(#119b9339de)"><g clip-path="url(#e895a741cb)"><path fill="#8a859b" d="M 879.882812 362.902344 L 855.878906 348.976562 L 876.769531 312.972656 L 888.769531 319.9375 L 895.734375 307.933594 L 907.734375 314.898438 Z M 879.882812 362.902344 " fill-opacity="1" fill-rule="nonzero"/></g></g></g></g><g clip-path="url(#67a49b2e81)"><path fill="#554e6d" d="M 668.652344 436.484375 L 668.652344 422.609375 L 682.527344 422.609375 L 682.527344 408.734375 L 696.402344 408.734375 L 696.402344 394.859375 L 738.027344 394.859375 L 738.027344 408.734375 L 751.902344 408.734375 L 751.902344 422.609375 L 765.777344 422.609375 L 765.777344 450.359375 L 721.890625 450.359375 L 689.464844 443.421875 L 682.527344 436.484375 Z M 668.652344 436.484375 " fill-opacity="1" fill-rule="nonzero"/></g><g clip-path="url(#1f255407f2)"><path fill="#554e6d" d="M 793.527344 505.859375 L 793.527344 478.109375 L 807.402344 478.109375 L 807.402344 436.484375 L 821.277344 436.484375 L 821.277344 422.609375 L 835.152344 422.609375 L 835.152344 436.484375 L 849.027344 436.484375 L 849.027344 450.359375 L 862.902344 450.359375 L 862.902344 464.234375 L 876.777344 464.234375 L 876.777344 478.109375 L 890.652344 478.109375 L 890.652344 491.984375 L 883.714844 498.921875 L 821.277344 505.859375 Z M 793.527344 505.859375 " fill-opacity="1" fill-rule="nonzero"/></g><path fill="#554e6d" d="M 710.277344 533.609375 L 710.277344 519.734375 L 724.152344 519.734375 L 724.152344 505.859375 L 738.027344 505.859375 L 738.027344 491.984375 L 765.777344 491.984375 L 765.777344 533.609375 L 758.699219 540.546875 L 724.152344 533.609375 Z M 710.277344 533.609375 " fill-opacity="1" fill-rule="nonzero"/><path fill="#bdbac6" d="M 724.152344 533.609375 L 724.152344 519.734375 L 738.027344 519.734375 L 738.027344 505.859375 L 751.902344 505.859375 L 751.902344 533.609375 L 765.777344 533.609375 L 765.777344 547.484375 L 751.902344 547.484375 Z M 724.152344 533.609375 " fill-opacity="1" fill-rule="nonzero"/><g clip-path="url(#6185e42750)"><path fill="#bdbac6" d="M 807.402344 519.734375 L 807.402344 491.984375 L 821.277344 491.984375 L 821.277344 464.234375 L 849.027344 464.234375 L 849.027344 478.109375 L 876.777344 478.109375 L 876.777344 491.984375 L 890.652344 491.984375 L 890.652344 505.859375 L 868.449219 505.859375 L 831.960938 519.734375 Z M 807.402344 519.734375 " fill-opacity="1" fill-rule="nonzero"/></g><path fill="#bdbac6" d="M 682.527344 450.359375 L 682.527344 436.484375 L 696.402344 436.484375 L 696.402344 422.609375 L 738.027344 422.609375 L 738.027344 436.484375 L 751.902344 436.484375 L 751.902344 450.359375 L 744.964844 457.296875 L 703.339844 457.296875 L 696.402344 450.359375 Z M 682.527344 450.359375 " fill-opacity="1" fill-rule="nonzero"/><path fill="#8a859b" d="M 821.277344 533.609375 L 821.277344 491.984375 L 835.152344 491.984375 L 835.152344 478.109375 L 849.027344 478.109375 L 849.027344 491.984375 L 876.777344 491.984375 L 876.777344 519.734375 L 849.027344 519.734375 L 849.027344 533.609375 Z M 821.277344 533.609375 " fill-opacity="1" fill-rule="nonzero"/><g clip-path="url(#5d415350da)"><path fill="#8a859b" d="M 751.902344 533.609375 L 751.902344 561.359375 L 738.027344 561.359375 L 738.027344 547.484375 L 724.152344 547.484375 L 724.152344 533.609375 Z M 751.902344 533.609375 " fill-opacity="1" fill-rule="nonzero"/></g><path fill="#8a859b" d="M 696.402344 464.234375 L 696.402344 436.484375 L 738.027344 436.484375 L 738.027344 450.359375 L 751.902344 450.359375 L 751.902344 464.234375 Z M 696.402344 464.234375 " fill-opacity="1" fill-rule="nonzero"/><g clip-path="url(#1c840faccf)"><g clip-path="url(#b405eb5c6d)"><g clip-path="url(#72967ac4de)"><g clip-path="url(#a4a3c77429)"><path fill="#554e6d" d="M 632.464844 491.070312 L 640.238281 502.5625 L 628.746094 510.335938 L 636.519531 521.828125 L 625.03125 529.601562 L 632.804688 541.09375 L 598.328125 564.421875 L 590.554688 552.929688 L 579.0625 560.703125 L 571.285156 549.210938 L 559.792969 556.988281 L 544.246094 534.003906 L 580.59375 509.410156 L 611.335938 496.984375 L 620.972656 498.84375 Z M 632.464844 491.070312 " fill-opacity="1" fill-rule="nonzero"/></g></g></g></g><g clip-path="url(#e91794674e)"><g clip-path="url(#aabaa87ffb)"><g clip-path="url(#2f8973e6a6)"><g clip-path="url(#0962d7ae21)"><path fill="#554e6d" d="M 490.160156 503.585938 L 505.710938 526.570312 L 494.21875 534.34375 L 517.542969 568.820312 L 506.050781 576.59375 L 513.828125 588.085938 L 502.335938 595.863281 L 494.558594 584.371094 L 483.066406 592.144531 L 475.292969 580.652344 L 463.800781 588.429688 L 456.027344 576.9375 L 444.535156 584.710938 L 436.757812 573.21875 L 425.265625 580.996094 L 417.492188 569.503906 L 419.351562 559.867188 L 467.175781 519.136719 Z M 490.160156 503.585938 " fill-opacity="1" fill-rule="nonzero"/></g></g></g></g><g clip-path="url(#db5951930c)"><g clip-path="url(#bcfe9cafbb)"><g clip-path="url(#b7d94cf32f)"><g clip-path="url(#22bc11cd9d)"><path fill="#554e6d" d="M 543.5625 433.949219 L 551.335938 445.441406 L 539.84375 453.21875 L 547.621094 464.710938 L 536.128906 472.484375 L 543.902344 483.976562 L 520.917969 499.527344 L 497.59375 465.050781 L 499.566406 455.339844 L 532.070312 441.726562 Z M 543.5625 433.949219 " fill-opacity="1" fill-rule="nonzero"/></g></g></g></g><g clip-path="url(#a7060246c2)"><g clip-path="url(#c285d19720)"><g clip-path="url(#46c63d46d9)"><g clip-path="url(#d6230e6700)"><path fill="#bdbac6" d="M 532.070312 441.726562 L 539.84375 453.21875 L 528.351562 460.992188 L 536.128906 472.484375 L 524.636719 480.261719 L 509.085938 457.277344 L 497.59375 465.050781 L 489.820312 453.558594 L 501.3125 445.785156 Z M 532.070312 441.726562 " fill-opacity="1" fill-rule="nonzero"/></g></g></g></g><g clip-path="url(#9fe587bd8a)"><g clip-path="url(#8255f7fa6f)"><g clip-path="url(#37001a1054)"><g clip-path="url(#387ea3ee06)"><path fill="#bdbac6" d="M 470.894531 499.867188 L 486.445312 522.851562 L 474.953125 530.628906 L 490.5 553.609375 L 467.519531 569.160156 L 459.742188 557.667969 L 436.757812 573.21875 L 428.984375 561.726562 L 417.492188 569.503906 L 409.71875 558.011719 L 428.105469 545.570312 L 450.554688 513.628906 Z M 470.894531 499.867188 " fill-opacity="1" fill-rule="nonzero"/></g></g></g></g><g clip-path="url(#f607517c00)"><g clip-path="url(#e3a8384a3b)"><g clip-path="url(#1d9b506a62)"><g clip-path="url(#306c91b2ef)"><path fill="#bdbac6" d="M 613.195312 487.351562 L 620.972656 498.84375 L 609.480469 506.621094 L 617.253906 518.113281 L 582.777344 541.4375 L 575.003906 529.945312 L 563.511719 537.71875 L 555.738281 526.226562 L 557.59375 516.59375 L 592.070312 493.269531 L 601.703125 495.128906 Z M 613.195312 487.351562 " fill-opacity="1" fill-rule="nonzero"/></g></g></g></g><g clip-path="url(#3b294f0daf)"><g clip-path="url(#7bbd5ee734)"><g clip-path="url(#9ecd5565dd)"><g clip-path="url(#5ad950d83b)"><path fill="#8a859b" d="M 451.625 496.152344 L 474.953125 530.628906 L 463.460938 538.402344 L 471.234375 549.894531 L 459.742188 557.667969 L 451.96875 546.175781 L 428.984375 561.726562 L 413.433594 538.742188 L 436.417969 523.191406 L 428.644531 511.703125 Z M 451.625 496.152344 " fill-opacity="1" fill-rule="nonzero"/></g></g></g></g><g clip-path="url(#f6d1abd383)"><g clip-path="url(#135f222072)"><g clip-path="url(#a72aeefbef)"><g clip-path="url(#3b0c3c7bf8)"><path fill="#8a859b" d="M 509.085938 457.277344 L 493.535156 434.292969 L 505.027344 426.515625 L 512.804688 438.007812 L 524.296875 430.234375 L 532.070312 441.726562 Z M 509.085938 457.277344 " fill-opacity="1" fill-rule="nonzero"/></g></g></g></g><g clip-path="url(#eb85065400)"><g clip-path="url(#c63e50e354)"><g clip-path="url(#c0e61fa011)"><g clip-path="url(#e73253095c)"><path fill="#8a859b" d="M 593.929688 483.636719 L 609.480469 506.621094 L 575.003906 529.945312 L 567.226562 518.453125 L 555.738281 526.226562 L 547.960938 514.734375 Z M 593.929688 483.636719 " fill-opacity="1" fill-rule="nonzero"/></g></g></g></g></svg>