<svg xmlns="http://www.w3.org/2000/svg" xmlns:xlink="http://www.w3.org/1999/xlink" width="1200" zoomAndPan="magnify" viewBox="0 0 900 479.999983" height="640" preserveAspectRatio="xMidYMid meet" version="1.0"><defs><g/><clipPath id="0ba65bde58"><path d="M 444 132 L 699 132 L 699 199 L 444 199 Z M 444 132 " clip-rule="nonzero"/></clipPath><clipPath id="85f026e9f3"><path d="M 162.3125 225.347656 L 684.566406 97.179688 L 712.453125 210.808594 L 190.199219 338.976562 Z M 162.3125 225.347656 " clip-rule="nonzero"/></clipPath><clipPath id="e67043f7e5"><path d="M 162.3125 225.347656 L 684.566406 97.179688 L 712.453125 210.808594 L 190.199219 338.976562 Z M 162.3125 225.347656 " clip-rule="nonzero"/></clipPath><clipPath id="9e5d449836"><path d="M 175 232 L 434 232 L 434 304 L 175 304 Z M 175 232 " clip-rule="nonzero"/></clipPath><clipPath id="a71b5c4718"><path d="M 162.3125 225.347656 L 684.566406 97.179688 L 712.453125 210.808594 L 190.199219 338.976562 Z M 162.3125 225.347656 " clip-rule="nonzero"/></clipPath><clipPath id="ba1309ef44"><path d="M 162.3125 225.347656 L 684.566406 97.179688 L 712.453125 210.808594 L 190.199219 338.976562 Z M 162.3125 225.347656 " clip-rule="nonzero"/></clipPath></defs><g clip-path="url(#0ba65bde58)"><g clip-path="url(#85f026e9f3)"><g clip-path="url(#e67043f7e5)"><path fill="#d9d9d9" d="M 611.609375 132.335938 C 565.183594 133.777344 506.144531 141.960938 444.265625 156.152344 L 444.726562 158.03125 C 578.574219 127.503906 689.554688 125.484375 696.699219 154.585938 C 699.539062 166.164062 685.25 180.949219 659.003906 197.015625 C 659.15625 197.640625 659.546875 197.875 659.699219 198.503906 C 688.0625 181.589844 701.492188 166.015625 698.574219 154.125 C 694.734375 138.476562 663.976562 130.765625 611.609375 132.335938 Z M 611.609375 132.335938 " fill-opacity="1" fill-rule="nonzero"/></g></g></g><g clip-path="url(#9e5d449836)"><g clip-path="url(#a71b5c4718)"><g clip-path="url(#ba1309ef44)"><path fill="#d9d9d9" d="M 432.566406 277.46875 C 297.546875 308.613281 185.234375 310.628906 178.09375 281.527344 C 174.945312 268.695312 192.445312 252.125 224.5625 234.292969 C 224.5625 234.292969 224.484375 233.976562 224.484375 233.976562 C 224.097656 233.742188 224.019531 233.429688 223.550781 232.878906 C 189.710938 251.800781 173.066406 269.15625 176.214844 281.988281 C 179.980469 297.320312 210.738281 305.035156 263.179688 303.777344 C 310.3125 302.496094 370.210938 293.765625 433.027344 279.347656 C 432.875 278.71875 432.71875 278.09375 432.566406 277.46875 Z M 432.566406 277.46875 " fill-opacity="1" fill-rule="nonzero"/></g></g></g><g fill="#601588" fill-opacity="0.302"><g transform="translate(430.243135, 322.695186)"><g><path d="M 0 -19.421875 L 0 -155.3125 L 38.828125 -155.3125 L 38.828125 -135.90625 L 58.25 -135.90625 L 58.25 -116.484375 L 77.65625 -116.484375 L 77.65625 -135.90625 L 97.078125 -135.90625 L 97.078125 -155.3125 L 135.90625 -155.3125 L 135.90625 -19.421875 L 97.078125 -19.421875 L 97.078125 -97.078125 L 77.65625 -97.078125 L 77.65625 -58.25 L 58.25 -58.25 L 58.25 -97.078125 L 38.828125 -97.078125 L 38.828125 -19.421875 Z M 0 -19.421875 "/></g></g></g><g fill="#601588" fill-opacity="0.502"><g transform="translate(423.378823, 315.830841)"><g><path d="M 0 -19.421875 L 0 -155.3125 L 38.828125 -155.3125 L 38.828125 -135.90625 L 58.25 -135.90625 L 58.25 -116.484375 L 77.65625 -116.484375 L 77.65625 -135.90625 L 97.078125 -135.90625 L 97.078125 -155.3125 L 135.90625 -155.3125 L 135.90625 -19.421875 L 97.078125 -19.421875 L 97.078125 -97.078125 L 77.65625 -97.078125 L 77.65625 -58.25 L 58.25 -58.25 L 58.25 -97.078125 L 38.828125 -97.078125 L 38.828125 -19.421875 Z M 0 -19.421875 "/></g></g></g><g fill="#f8f7f6" fill-opacity="1"><g transform="translate(416.514488, 308.96651)"><g><path d="M 0 -19.421875 L 0 -155.3125 L 38.828125 -155.3125 L 38.828125 -135.90625 L 58.25 -135.90625 L 58.25 -116.484375 L 77.65625 -116.484375 L 77.65625 -135.90625 L 97.078125 -135.90625 L 97.078125 -155.3125 L 135.90625 -155.3125 L 135.90625 -19.421875 L 97.078125 -19.421875 L 97.078125 -97.078125 L 77.65625 -97.078125 L 77.65625 -58.25 L 58.25 -58.25 L 58.25 -97.078125 L 38.828125 -97.078125 L 38.828125 -19.421875 Z M 0 -19.421875 "/></g></g></g><g fill="#ff00ff" fill-opacity="1"><g transform="translate(324.990308, 213.455937)"><g><path d="M 7.09375 -7.09375 L 7.09375 -14.1875 L 0 -14.1875 L 0 -21.28125 L 14.1875 -21.28125 L 14.1875 -14.1875 L 35.453125 -14.1875 L 35.453125 -28.359375 L 7.09375 -28.359375 L 7.09375 -35.453125 L 0 -35.453125 L 0 -49.640625 L 7.09375 -49.640625 L 7.09375 -56.734375 L 42.546875 -56.734375 L 42.546875 -49.640625 L 49.640625 -49.640625 L 49.640625 -42.546875 L 35.453125 -42.546875 L 35.453125 -49.640625 L 14.1875 -49.640625 L 14.1875 -35.453125 L 42.546875 -35.453125 L 42.546875 -28.359375 L 49.640625 -28.359375 L 49.640625 -14.1875 L 42.546875 -14.1875 L 42.546875 -7.09375 Z M 7.09375 -7.09375 "/></g></g></g><g fill="#ff00ff" fill-opacity="1"><g transform="translate(381.719137, 213.455937)"><g><path d="M 0 -7.09375 L 0 -56.734375 L 49.640625 -56.734375 L 49.640625 -49.640625 L 14.1875 -49.640625 L 14.1875 -35.453125 L 42.546875 -35.453125 L 42.546875 -28.359375 L 14.1875 -28.359375 L 14.1875 -14.1875 L 49.640625 -14.1875 L 49.640625 -7.09375 Z M 0 -7.09375 "/></g></g></g><g fill="#00ffff" fill-opacity="1"><g transform="translate(322.862653, 213.455937)"><g><path d="M 7.09375 -7.09375 L 7.09375 -14.1875 L 0 -14.1875 L 0 -21.28125 L 14.1875 -21.28125 L 14.1875 -14.1875 L 35.453125 -14.1875 L 35.453125 -28.359375 L 7.09375 -28.359375 L 7.09375 -35.453125 L 0 -35.453125 L 0 -49.640625 L 7.09375 -49.640625 L 7.09375 -56.734375 L 42.546875 -56.734375 L 42.546875 -49.640625 L 49.640625 -49.640625 L 49.640625 -42.546875 L 35.453125 -42.546875 L 35.453125 -49.640625 L 14.1875 -49.640625 L 14.1875 -35.453125 L 42.546875 -35.453125 L 42.546875 -28.359375 L 49.640625 -28.359375 L 49.640625 -14.1875 L 42.546875 -14.1875 L 42.546875 -7.09375 Z M 7.09375 -7.09375 "/></g></g></g><g fill="#00ffff" fill-opacity="1"><g transform="translate(379.591482, 213.455937)"><g><path d="M 0 -7.09375 L 0 -56.734375 L 49.640625 -56.734375 L 49.640625 -49.640625 L 14.1875 -49.640625 L 14.1875 -35.453125 L 42.546875 -35.453125 L 42.546875 -28.359375 L 14.1875 -28.359375 L 14.1875 -14.1875 L 49.640625 -14.1875 L 49.640625 -7.09375 Z M 0 -7.09375 "/></g></g></g><g fill="#ffde59" fill-opacity="1"><g transform="translate(323.926479, 213.455937)"><g><path d="M 7.09375 -7.09375 L 7.09375 -14.1875 L 0 -14.1875 L 0 -21.28125 L 14.1875 -21.28125 L 14.1875 -14.1875 L 35.453125 -14.1875 L 35.453125 -28.359375 L 7.09375 -28.359375 L 7.09375 -35.453125 L 0 -35.453125 L 0 -49.640625 L 7.09375 -49.640625 L 7.09375 -56.734375 L 42.546875 -56.734375 L 42.546875 -49.640625 L 49.640625 -49.640625 L 49.640625 -42.546875 L 35.453125 -42.546875 L 35.453125 -49.640625 L 14.1875 -49.640625 L 14.1875 -35.453125 L 42.546875 -35.453125 L 42.546875 -28.359375 L 49.640625 -28.359375 L 49.640625 -14.1875 L 42.546875 -14.1875 L 42.546875 -7.09375 Z M 7.09375 -7.09375 "/></g></g></g><g fill="#ffde59" fill-opacity="1"><g transform="translate(380.655308, 213.455937)"><g><path d="M 0 -7.09375 L 0 -56.734375 L 49.640625 -56.734375 L 49.640625 -49.640625 L 14.1875 -49.640625 L 14.1875 -35.453125 L 42.546875 -35.453125 L 42.546875 -28.359375 L 14.1875 -28.359375 L 14.1875 -14.1875 L 49.640625 -14.1875 L 49.640625 -7.09375 Z M 0 -7.09375 "/></g></g></g><g fill="#ff00ff" fill-opacity="1"><g transform="translate(324.990308, 292.491053)"><g><path d="M 14.1875 -7.09375 L 14.1875 -14.1875 L 7.09375 -14.1875 L 7.09375 -21.28125 L 0 -21.28125 L 0 -42.546875 L 7.09375 -42.546875 L 7.09375 -49.640625 L 14.1875 -49.640625 L 14.1875 -56.734375 L 42.546875 -56.734375 L 42.546875 -49.640625 L 49.640625 -49.640625 L 49.640625 -42.546875 L 35.453125 -42.546875 L 35.453125 -49.640625 L 21.28125 -49.640625 L 21.28125 -42.546875 L 14.1875 -42.546875 L 14.1875 -21.28125 L 21.28125 -21.28125 L 21.28125 -14.1875 L 35.453125 -14.1875 L 35.453125 -21.28125 L 49.640625 -21.28125 L 49.640625 -14.1875 L 42.546875 -14.1875 L 42.546875 -7.09375 Z M 14.1875 -7.09375 "/></g></g></g><g fill="#ff00ff" fill-opacity="1"><g transform="translate(381.719137, 292.491053)"><g><path d="M 7.09375 -7.09375 L 7.09375 -14.1875 L 0 -14.1875 L 0 -49.640625 L 7.09375 -49.640625 L 7.09375 -56.734375 L 42.546875 -56.734375 L 42.546875 -49.640625 L 49.640625 -49.640625 L 49.640625 -14.1875 L 42.546875 -14.1875 L 42.546875 -7.09375 Z M 14.1875 -14.1875 L 35.453125 -14.1875 L 35.453125 -49.640625 L 14.1875 -49.640625 Z M 14.1875 -14.1875 "/></g></g></g><g fill="#00ffff" fill-opacity="1"><g transform="translate(322.862653, 292.491053)"><g><path d="M 14.1875 -7.09375 L 14.1875 -14.1875 L 7.09375 -14.1875 L 7.09375 -21.28125 L 0 -21.28125 L 0 -42.546875 L 7.09375 -42.546875 L 7.09375 -49.640625 L 14.1875 -49.640625 L 14.1875 -56.734375 L 42.546875 -56.734375 L 42.546875 -49.640625 L 49.640625 -49.640625 L 49.640625 -42.546875 L 35.453125 -42.546875 L 35.453125 -49.640625 L 21.28125 -49.640625 L 21.28125 -42.546875 L 14.1875 -42.546875 L 14.1875 -21.28125 L 21.28125 -21.28125 L 21.28125 -14.1875 L 35.453125 -14.1875 L 35.453125 -21.28125 L 49.640625 -21.28125 L 49.640625 -14.1875 L 42.546875 -14.1875 L 42.546875 -7.09375 Z M 14.1875 -7.09375 "/></g></g></g><g fill="#00ffff" fill-opacity="1"><g transform="translate(379.591482, 292.491053)"><g><path d="M 7.09375 -7.09375 L 7.09375 -14.1875 L 0 -14.1875 L 0 -49.640625 L 7.09375 -49.640625 L 7.09375 -56.734375 L 42.546875 -56.734375 L 42.546875 -49.640625 L 49.640625 -49.640625 L 49.640625 -14.1875 L 42.546875 -14.1875 L 42.546875 -7.09375 Z M 14.1875 -14.1875 L 35.453125 -14.1875 L 35.453125 -49.640625 L 14.1875 -49.640625 Z M 14.1875 -14.1875 "/></g></g></g><g fill="#0097b2" fill-opacity="1"><g transform="translate(323.926479, 292.491053)"><g><path d="M 14.1875 -7.09375 L 14.1875 -14.1875 L 7.09375 -14.1875 L 7.09375 -21.28125 L 0 -21.28125 L 0 -42.546875 L 7.09375 -42.546875 L 7.09375 -49.640625 L 14.1875 -49.640625 L 14.1875 -56.734375 L 42.546875 -56.734375 L 42.546875 -49.640625 L 49.640625 -49.640625 L 49.640625 -42.546875 L 35.453125 -42.546875 L 35.453125 -49.640625 L 21.28125 -49.640625 L 21.28125 -42.546875 L 14.1875 -42.546875 L 14.1875 -21.28125 L 21.28125 -21.28125 L 21.28125 -14.1875 L 35.453125 -14.1875 L 35.453125 -21.28125 L 49.640625 -21.28125 L 49.640625 -14.1875 L 42.546875 -14.1875 L 42.546875 -7.09375 Z M 14.1875 -7.09375 "/></g></g></g><g fill="#0097b2" fill-opacity="1"><g transform="translate(380.655308, 292.491053)"><g><path d="M 7.09375 -7.09375 L 7.09375 -14.1875 L 0 -14.1875 L 0 -49.640625 L 7.09375 -49.640625 L 7.09375 -56.734375 L 42.546875 -56.734375 L 42.546875 -49.640625 L 49.640625 -49.640625 L 49.640625 -14.1875 L 42.546875 -14.1875 L 42.546875 -7.09375 Z M 14.1875 -14.1875 L 35.453125 -14.1875 L 35.453125 -49.640625 L 14.1875 -49.640625 Z M 14.1875 -14.1875 "/></g></g></g><g fill="#ff00ff" fill-opacity="1"><g transform="translate(547.737004, 292.000282)"><g><path d="M 0 -7.625 L 0 -61 L 45.75 -61 L 45.75 -53.375 L 53.375 -53.375 L 53.375 -30.5 L 45.75 -30.5 L 45.75 -22.875 L 15.25 -22.875 L 15.25 -7.625 Z M 15.25 -30.5 L 38.125 -30.5 L 38.125 -53.375 L 15.25 -53.375 Z M 15.25 -30.5 "/></g></g></g><g fill="#00ffff" fill-opacity="1"><g transform="translate(545.449204, 292.000282)"><g><path d="M 0 -7.625 L 0 -61 L 45.75 -61 L 45.75 -53.375 L 53.375 -53.375 L 53.375 -30.5 L 45.75 -30.5 L 45.75 -22.875 L 15.25 -22.875 L 15.25 -7.625 Z M 15.25 -30.5 L 38.125 -30.5 L 38.125 -53.375 L 15.25 -53.375 Z M 15.25 -30.5 "/></g></g></g><g fill="#0097b2" fill-opacity="1"><g transform="translate(546.593116, 292.000282)"><g><path d="M 0 -7.625 L 0 -61 L 45.75 -61 L 45.75 -53.375 L 53.375 -53.375 L 53.375 -30.5 L 45.75 -30.5 L 45.75 -22.875 L 15.25 -22.875 L 15.25 -7.625 Z M 15.25 -30.5 L 38.125 -30.5 L 38.125 -53.375 L 15.25 -53.375 Z M 15.25 -30.5 "/></g></g></g></svg>