<svg xmlns="http://www.w3.org/2000/svg" xmlns:xlink="http://www.w3.org/1999/xlink" width="40" zoomAndPan="magnify" viewBox="0 0 30 30.000001" height="40" preserveAspectRatio="xMidYMid meet" version="1.0"><defs><clipPath id="d1c09aa679"><path d="M 0.484375 5.535156 L 10 5.535156 L 10 23 L 0.484375 23 Z M 0.484375 5.535156 " clip-rule="nonzero"/></clipPath><clipPath id="d499b8b76d"><path d="M 18 5.535156 L 29 5.535156 L 29 23 L 18 23 Z M 18 5.535156 " clip-rule="nonzero"/></clipPath><clipPath id="aaead2dca9"><path d="M 9 5.535156 L 19 5.535156 L 19 23 L 9 23 Z M 9 5.535156 " clip-rule="nonzero"/></clipPath><clipPath id="0168733de5"><path d="M 1 6 L 12 6 L 12 23.679688 L 1 23.679688 Z M 1 6 " clip-rule="nonzero"/></clipPath><clipPath id="a45293f10b"><path d="M 20 6 L 29.515625 6 L 29.515625 23.679688 L 20 23.679688 Z M 20 6 " clip-rule="nonzero"/></clipPath><clipPath id="86eb5a46cf"><path d="M 11 6 L 21 6 L 21 23.679688 L 11 23.679688 Z M 11 6 " clip-rule="nonzero"/></clipPath></defs><g clip-path="url(#d1c09aa679)"><path fill="#ff61e6" d="M 2.335938 5.53125 L 2.335938 7.371094 L 4.175781 7.371094 L 4.175781 9.214844 L 6.015625 9.214844 L 6.015625 11.054688 L 7.855469 11.054688 L 7.855469 12.894531 L 9.699219 12.894531 L 9.699219 14.734375 L 7.855469 14.734375 L 7.855469 16.574219 L 6.015625 16.574219 L 6.015625 18.414062 L 4.175781 18.414062 L 4.175781 20.257812 L 2.335938 20.257812 L 2.335938 22.097656 L 0.496094 22.097656 L 0.496094 18.414062 L 2.335938 18.414062 L 2.335938 14.734375 L 4.175781 14.734375 L 4.175781 12.894531 L 2.335938 12.894531 L 2.335938 9.214844 L 0.496094 9.214844 L 0.496094 5.53125 Z M 2.335938 5.53125 " fill-opacity="1" fill-rule="nonzero"/></g><g clip-path="url(#d499b8b76d)"><path fill="#ff61e6" d="M 20.738281 16.574219 L 20.738281 14.734375 L 22.582031 14.734375 L 22.582031 12.894531 L 20.738281 12.894531 L 20.738281 9.214844 L 18.898438 9.214844 L 18.898438 5.53125 L 20.738281 5.53125 L 20.738281 7.371094 L 22.582031 7.371094 L 22.582031 9.214844 L 24.421875 9.214844 L 24.421875 11.054688 L 26.261719 11.054688 L 26.261719 12.894531 L 28.101562 12.894531 L 28.101562 14.734375 L 26.261719 14.734375 L 26.261719 16.574219 L 24.421875 16.574219 L 24.421875 18.414062 L 22.582031 18.414062 L 22.582031 20.257812 L 20.738281 20.257812 L 20.738281 22.097656 L 18.898438 22.097656 L 18.898438 18.414062 L 20.738281 18.414062 Z M 20.738281 16.574219 " fill-opacity="1" fill-rule="nonzero"/></g><g clip-path="url(#aaead2dca9)"><path fill="#ff61e6" d="M 11.539062 16.574219 L 11.539062 14.734375 L 13.378906 14.734375 L 13.378906 12.894531 L 11.539062 12.894531 L 11.539062 9.214844 L 9.699219 9.214844 L 9.699219 5.53125 L 11.539062 5.53125 L 11.539062 7.371094 L 13.378906 7.371094 L 13.378906 9.214844 L 15.21875 9.214844 L 15.21875 11.054688 L 17.058594 11.054688 L 17.058594 12.894531 L 18.898438 12.894531 L 18.898438 14.734375 L 17.058594 14.734375 L 17.058594 16.574219 L 15.21875 16.574219 L 15.21875 18.414062 L 13.378906 18.414062 L 13.378906 20.257812 L 11.539062 20.257812 L 11.539062 22.097656 L 9.699219 22.097656 L 9.699219 18.414062 L 11.539062 18.414062 Z M 11.539062 16.574219 " fill-opacity="1" fill-rule="nonzero"/></g><path fill="#ffffff" d="M 3.039062 6.238281 L 3.039062 8.078125 L 4.878906 8.078125 L 4.878906 9.917969 L 6.722656 9.917969 L 6.722656 11.757812 L 8.5625 11.757812 L 8.5625 13.597656 L 10.402344 13.597656 L 10.402344 15.4375 L 8.5625 15.4375 L 8.5625 17.28125 L 6.722656 17.28125 L 6.722656 19.121094 L 4.878906 19.121094 L 4.878906 20.960938 L 3.039062 20.960938 L 3.039062 22.800781 L 1.199219 22.800781 L 1.199219 19.121094 L 3.039062 19.121094 L 3.039062 15.4375 L 4.878906 15.4375 L 4.878906 13.597656 L 3.039062 13.597656 L 3.039062 9.917969 L 1.199219 9.917969 L 1.199219 6.238281 Z M 3.039062 6.238281 " fill-opacity="1" fill-rule="nonzero"/><path fill="#ffffff" d="M 21.445312 17.28125 L 21.445312 15.4375 L 23.285156 15.4375 L 23.285156 13.597656 L 21.445312 13.597656 L 21.445312 9.917969 L 19.605469 9.917969 L 19.605469 6.238281 L 21.445312 6.238281 L 21.445312 8.078125 L 23.285156 8.078125 L 23.285156 9.917969 L 25.125 9.917969 L 25.125 11.757812 L 26.964844 11.757812 L 26.964844 13.597656 L 28.804688 13.597656 L 28.804688 15.4375 L 26.964844 15.4375 L 26.964844 17.28125 L 25.125 17.28125 L 25.125 19.121094 L 23.285156 19.121094 L 23.285156 20.960938 L 21.445312 20.960938 L 21.445312 22.800781 L 19.605469 22.800781 L 19.605469 19.121094 L 21.445312 19.121094 Z M 21.445312 17.28125 " fill-opacity="1" fill-rule="nonzero"/><path fill="#ffffff" d="M 12.242188 17.28125 L 12.242188 15.4375 L 14.082031 15.4375 L 14.082031 13.597656 L 12.242188 13.597656 L 12.242188 9.917969 L 10.402344 9.917969 L 10.402344 6.238281 L 12.242188 6.238281 L 12.242188 8.078125 L 14.082031 8.078125 L 14.082031 9.917969 L 15.921875 9.917969 L 15.921875 11.757812 L 17.765625 11.757812 L 17.765625 13.597656 L 19.605469 13.597656 L 19.605469 15.4375 L 17.765625 15.4375 L 17.765625 17.28125 L 15.921875 17.28125 L 15.921875 19.121094 L 14.082031 19.121094 L 14.082031 20.960938 L 12.242188 20.960938 L 12.242188 22.800781 L 10.402344 22.800781 L 10.402344 19.121094 L 12.242188 19.121094 Z M 12.242188 17.28125 " fill-opacity="1" fill-rule="nonzero"/><g clip-path="url(#0168733de5)"><path fill="#017f99" d="M 3.738281 6.9375 L 3.738281 8.777344 L 5.578125 8.777344 L 5.578125 10.617188 L 7.417969 10.617188 L 7.417969 12.457031 L 9.261719 12.457031 L 9.261719 14.296875 L 11.101562 14.296875 L 11.101562 16.136719 L 9.261719 16.136719 L 9.261719 17.976562 L 7.417969 17.976562 L 7.417969 19.820312 L 5.578125 19.820312 L 5.578125 21.660156 L 3.738281 21.660156 L 3.738281 23.5 L 1.898438 23.5 L 1.898438 19.820312 L 3.738281 19.820312 L 3.738281 16.136719 L 5.578125 16.136719 L 5.578125 14.296875 L 3.738281 14.296875 L 3.738281 10.617188 L 1.898438 10.617188 L 1.898438 6.9375 Z M 3.738281 6.9375 " fill-opacity="1" fill-rule="nonzero"/></g><g clip-path="url(#a45293f10b)"><path fill="#017f99" d="M 22.144531 17.976562 L 22.144531 16.136719 L 23.984375 16.136719 L 23.984375 14.296875 L 22.144531 14.296875 L 22.144531 10.617188 L 20.300781 10.617188 L 20.300781 6.9375 L 22.144531 6.9375 L 22.144531 8.777344 L 23.984375 8.777344 L 23.984375 10.617188 L 25.824219 10.617188 L 25.824219 12.457031 L 27.664062 12.457031 L 27.664062 14.296875 L 29.503906 14.296875 L 29.503906 16.136719 L 27.664062 16.136719 L 27.664062 17.976562 L 25.824219 17.976562 L 25.824219 19.820312 L 23.984375 19.820312 L 23.984375 21.660156 L 22.144531 21.660156 L 22.144531 23.5 L 20.300781 23.5 L 20.300781 19.820312 L 22.144531 19.820312 Z M 22.144531 17.976562 " fill-opacity="1" fill-rule="nonzero"/></g><g clip-path="url(#86eb5a46cf)"><path fill="#017f99" d="M 12.941406 17.976562 L 12.941406 16.136719 L 14.78125 16.136719 L 14.78125 14.296875 L 12.941406 14.296875 L 12.941406 10.617188 L 11.101562 10.617188 L 11.101562 6.9375 L 12.941406 6.9375 L 12.941406 8.777344 L 14.78125 8.777344 L 14.78125 10.617188 L 16.621094 10.617188 L 16.621094 12.457031 L 18.460938 12.457031 L 18.460938 14.296875 L 20.300781 14.296875 L 20.300781 16.136719 L 18.460938 16.136719 L 18.460938 17.976562 L 16.621094 17.976562 L 16.621094 19.820312 L 14.78125 19.820312 L 14.78125 21.660156 L 12.941406 21.660156 L 12.941406 23.5 L 11.101562 23.5 L 11.101562 19.820312 L 12.941406 19.820312 Z M 12.941406 17.976562 " fill-opacity="1" fill-rule="nonzero"/></g></svg>