<svg xmlns="http://www.w3.org/2000/svg" xmlns:xlink="http://www.w3.org/1999/xlink" width="40" zoomAndPan="magnify" viewBox="0 0 30 30.000001" height="40" preserveAspectRatio="xMidYMid meet" version="1.0"><defs><clipPath id="6074d411d0"><path d="M 6.019531 19 L 23 19 L 23 29.03125 L 6.019531 29.03125 Z M 6.019531 19 " clip-rule="nonzero"/></clipPath><clipPath id="8c1194f134"><path d="M 6.019531 1 L 23 1 L 23 11 L 6.019531 11 Z M 6.019531 1 " clip-rule="nonzero"/></clipPath><clipPath id="bddce068c1"><path d="M 6.019531 10 L 23 10 L 23 20 L 6.019531 20 Z M 6.019531 10 " clip-rule="nonzero"/></clipPath><clipPath id="e29212bfba"><path d="M 6.019531 19 L 24 19 L 24 29 L 6.019531 29 Z M 6.019531 19 " clip-rule="nonzero"/></clipPath><clipPath id="0a6b24f4a8"><path d="M 6.019531 0 L 24 0 L 24 10 L 6.019531 10 Z M 6.019531 0 " clip-rule="nonzero"/></clipPath><clipPath id="1889fc1759"><path d="M 6.019531 9 L 24 9 L 24 20 L 6.019531 20 Z M 6.019531 9 " clip-rule="nonzero"/></clipPath></defs><g clip-path="url(#6074d411d0)"><path fill="#ff61e6" d="M 6.015625 27.179688 L 7.855469 27.179688 L 7.855469 25.339844 L 9.699219 25.339844 L 9.699219 23.5 L 11.539062 23.5 L 11.539062 21.660156 L 13.378906 21.660156 L 13.378906 19.820312 L 15.21875 19.820312 L 15.21875 21.660156 L 17.058594 21.660156 L 17.058594 23.5 L 18.898438 23.5 L 18.898438 25.339844 L 20.738281 25.339844 L 20.738281 27.179688 L 22.582031 27.179688 L 22.582031 29.019531 L 18.898438 29.019531 L 18.898438 27.179688 L 15.21875 27.179688 L 15.21875 25.339844 L 13.378906 25.339844 L 13.378906 27.179688 L 9.699219 27.179688 L 9.699219 29.019531 L 6.015625 29.019531 Z M 6.015625 27.179688 " fill-opacity="1" fill-rule="nonzero"/></g><g clip-path="url(#8c1194f134)"><path fill="#ff61e6" d="M 17.058594 8.777344 L 15.21875 8.777344 L 15.21875 6.9375 L 13.378906 6.9375 L 13.378906 8.777344 L 9.699219 8.777344 L 9.699219 10.617188 L 6.015625 10.617188 L 6.015625 8.777344 L 7.855469 8.777344 L 7.855469 6.9375 L 9.699219 6.9375 L 9.699219 5.09375 L 11.539062 5.09375 L 11.539062 3.253906 L 13.378906 3.253906 L 13.378906 1.414062 L 15.21875 1.414062 L 15.21875 3.253906 L 17.058594 3.253906 L 17.058594 5.09375 L 18.898438 5.09375 L 18.898438 6.9375 L 20.738281 6.9375 L 20.738281 8.777344 L 22.582031 8.777344 L 22.582031 10.617188 L 18.898438 10.617188 L 18.898438 8.777344 Z M 17.058594 8.777344 " fill-opacity="1" fill-rule="nonzero"/></g><g clip-path="url(#bddce068c1)"><path fill="#ff61e6" d="M 17.058594 17.980469 L 15.21875 17.980469 L 15.21875 16.136719 L 13.378906 16.136719 L 13.378906 17.980469 L 9.699219 17.980469 L 9.699219 19.820312 L 6.015625 19.820312 L 6.015625 17.980469 L 7.855469 17.980469 L 7.855469 16.136719 L 9.699219 16.136719 L 9.699219 14.296875 L 11.539062 14.296875 L 11.539062 12.457031 L 13.378906 12.457031 L 13.378906 10.617188 L 15.21875 10.617188 L 15.21875 12.457031 L 17.058594 12.457031 L 17.058594 14.296875 L 18.898438 14.296875 L 18.898438 16.136719 L 20.738281 16.136719 L 20.738281 17.980469 L 22.582031 17.980469 L 22.582031 19.820312 L 18.898438 19.820312 L 18.898438 17.980469 Z M 17.058594 17.980469 " fill-opacity="1" fill-rule="nonzero"/></g><g clip-path="url(#e29212bfba)"><path fill="#ffffff" d="M 6.722656 26.476562 L 8.5625 26.476562 L 8.5625 24.636719 L 10.402344 24.636719 L 10.402344 22.792969 L 12.242188 22.792969 L 12.242188 20.953125 L 14.082031 20.953125 L 14.082031 19.113281 L 15.921875 19.113281 L 15.921875 20.953125 L 17.765625 20.953125 L 17.765625 22.792969 L 19.605469 22.792969 L 19.605469 24.636719 L 21.445312 24.636719 L 21.445312 26.476562 L 23.285156 26.476562 L 23.285156 28.316406 L 19.605469 28.316406 L 19.605469 26.476562 L 15.921875 26.476562 L 15.921875 24.636719 L 14.082031 24.636719 L 14.082031 26.476562 L 10.402344 26.476562 L 10.402344 28.316406 L 6.722656 28.316406 Z M 6.722656 26.476562 " fill-opacity="1" fill-rule="nonzero"/></g><g clip-path="url(#0a6b24f4a8)"><path fill="#ffffff" d="M 17.765625 8.070312 L 15.921875 8.070312 L 15.921875 6.230469 L 14.082031 6.230469 L 14.082031 8.070312 L 10.402344 8.070312 L 10.402344 9.910156 L 6.722656 9.910156 L 6.722656 8.070312 L 8.5625 8.070312 L 8.5625 6.230469 L 10.402344 6.230469 L 10.402344 4.390625 L 12.242188 4.390625 L 12.242188 2.550781 L 14.082031 2.550781 L 14.082031 0.710938 L 15.921875 0.710938 L 15.921875 2.550781 L 17.765625 2.550781 L 17.765625 4.390625 L 19.605469 4.390625 L 19.605469 6.230469 L 21.445312 6.230469 L 21.445312 8.070312 L 23.285156 8.070312 L 23.285156 9.910156 L 19.605469 9.910156 L 19.605469 8.070312 Z M 17.765625 8.070312 " fill-opacity="1" fill-rule="nonzero"/></g><g clip-path="url(#1889fc1759)"><path fill="#ffffff" d="M 17.765625 17.273438 L 15.921875 17.273438 L 15.921875 15.433594 L 14.082031 15.433594 L 14.082031 17.273438 L 10.402344 17.273438 L 10.402344 19.113281 L 6.722656 19.113281 L 6.722656 17.273438 L 8.5625 17.273438 L 8.5625 15.433594 L 10.402344 15.433594 L 10.402344 13.59375 L 12.242188 13.59375 L 12.242188 11.753906 L 14.082031 11.753906 L 14.082031 9.910156 L 15.921875 9.910156 L 15.921875 11.753906 L 17.765625 11.753906 L 17.765625 13.59375 L 19.605469 13.59375 L 19.605469 15.433594 L 21.445312 15.433594 L 21.445312 17.273438 L 23.285156 17.273438 L 23.285156 19.113281 L 19.605469 19.113281 L 19.605469 17.273438 Z M 17.765625 17.273438 " fill-opacity="1" fill-rule="nonzero"/></g><path fill="#017f99" d="M 7.417969 25.777344 L 9.261719 25.777344 L 9.261719 23.9375 L 11.101562 23.9375 L 11.101562 22.097656 L 12.941406 22.097656 L 12.941406 20.257812 L 14.78125 20.257812 L 14.78125 18.414062 L 16.621094 18.414062 L 16.621094 20.257812 L 18.460938 20.257812 L 18.460938 22.097656 L 20.300781 22.097656 L 20.300781 23.9375 L 22.144531 23.9375 L 22.144531 25.777344 L 23.984375 25.777344 L 23.984375 27.617188 L 20.300781 27.617188 L 20.300781 25.777344 L 16.621094 25.777344 L 16.621094 23.9375 L 14.78125 23.9375 L 14.78125 25.777344 L 11.101562 25.777344 L 11.101562 27.617188 L 7.417969 27.617188 Z M 7.417969 25.777344 " fill-opacity="1" fill-rule="nonzero"/><path fill="#017f99" d="M 18.460938 7.371094 L 16.621094 7.371094 L 16.621094 5.53125 L 14.78125 5.53125 L 14.78125 7.371094 L 11.101562 7.371094 L 11.101562 9.214844 L 7.417969 9.214844 L 7.417969 7.371094 L 9.261719 7.371094 L 9.261719 5.53125 L 11.101562 5.53125 L 11.101562 3.691406 L 12.941406 3.691406 L 12.941406 1.851562 L 14.78125 1.851562 L 14.78125 0.0117188 L 16.621094 0.0117188 L 16.621094 1.851562 L 18.460938 1.851562 L 18.460938 3.691406 L 20.300781 3.691406 L 20.300781 5.53125 L 22.144531 5.53125 L 22.144531 7.371094 L 23.984375 7.371094 L 23.984375 9.214844 L 20.300781 9.214844 L 20.300781 7.371094 Z M 18.460938 7.371094 " fill-opacity="1" fill-rule="nonzero"/><path fill="#017f99" d="M 18.460938 16.574219 L 16.621094 16.574219 L 16.621094 14.734375 L 14.78125 14.734375 L 14.78125 16.574219 L 11.101562 16.574219 L 11.101562 18.414062 L 7.417969 18.414062 L 7.417969 16.574219 L 9.261719 16.574219 L 9.261719 14.734375 L 11.101562 14.734375 L 11.101562 12.894531 L 12.941406 12.894531 L 12.941406 11.054688 L 14.78125 11.054688 L 14.78125 9.214844 L 16.621094 9.214844 L 16.621094 11.054688 L 18.460938 11.054688 L 18.460938 12.894531 L 20.300781 12.894531 L 20.300781 14.734375 L 22.144531 14.734375 L 22.144531 16.574219 L 23.984375 16.574219 L 23.984375 18.414062 L 20.300781 18.414062 L 20.300781 16.574219 Z M 18.460938 16.574219 " fill-opacity="1" fill-rule="nonzero"/></svg>